<?xml version="1.0" encoding="UTF-8" standalone="no"?>
<!DOCTYPE svg PUBLIC "-//W3C//DTD SVG 1.1//EN" "http://www.w3.org/Graphics/SVG/1.1/DTD/svg11.dtd">
<svg xmlns="http://www.w3.org/2000/svg" version="1.1" viewBox="0.00 0.00 1723.00 489.00">
<g stroke-width="2.00" fill="none" stroke-linecap="butt">
<path stroke="#808080" vector-effect="non-scaling-stroke" d="
  M 1308.49 79.52
  C 1291.48 56.55 1264.14 42.70 1235.74 42.05
  Q 1220.86 41.71 1216.00 42.00
  C 1176.71 44.31 1143.23 71.43 1131.23 108.64
  Q 1121.11 140.03 1128.59 173.03
  C 1136.13 206.35 1158.77 235.64 1191.25 245.95
  C 1214.54 253.35 1243.71 253.70 1266.97 244.58
  C 1330.18 219.82 1347.44 132.11 1308.49 79.52"
/>
<path stroke="#808080" vector-effect="non-scaling-stroke" d="
  M 355.44 158.84
  A 1.33 1.33 0.0 0 1 356.78 157.54
  Q 371.86 157.64 386.50 156.23
  C 406.87 154.27 425.00 147.63 436.84 130.22
  C 447.12 115.10 448.78 94.43 440.88 77.99
  C 434.27 64.22 421.34 54.08 406.82 49.68
  C 397.56 46.86 384.34 44.78 374.00 44.78
  Q 329.70 44.75 285.76 44.64
  A 1.88 1.88 0.0 0 0 283.88 46.65
  L 284.28 52.66
  A 0.70 0.70 0.0 0 0 284.91 53.31
  C 292.00 54.04 301.16 53.83 306.50 59.50
  Q 309.37 62.55 309.71 66.25
  C 310.22 71.81 310.73 77.26 310.73 82.92
  Q 310.73 146.84 310.50 210.75
  Q 310.47 219.50 310.05 223.01
  C 308.40 236.53 297.91 237.33 287.00 237.95
  C 285.06 238.07 284.41 238.57 284.27 240.50
  Q 284.07 243.26 284.26 245.63
  A 1.20 1.20 0.0 0 0 285.46 246.73
  L 380.48 246.77
  A 1.59 1.58 88.1 0 0 382.06 245.08
  L 381.64 238.87
  Q 381.60 238.18 380.91 238.11
  C 375.97 237.55 369.67 237.66 365.62 236.23
  C 357.24 233.28 355.79 226.53 355.56 217.82
  Q 354.75 188.02 355.44 158.84"
/>
<path stroke="#808080" vector-effect="non-scaling-stroke" d="
  M 593.08 151.37
  C 598.38 149.38 604.23 147.50 608.77 145.01
  Q 616.09 140.98 621.19 135.73
  Q 636.73 119.69 634.53 96.54
  Q 631.75 67.38 607.90 53.98
  Q 602.30 50.83 594.09 48.89
  Q 577.37 44.93 563.75 44.87
  Q 514.40 44.67 465.04 44.77
  C 463.11 44.77 460.37 43.74 458.29 45.44
  A 1.09 1.07 -21.7 0 0 457.90 46.33
  L 458.25 52.69
  Q 458.28 53.23 458.82 53.30
  C 468.05 54.50 482.38 54.05 483.67 67.01
  C 484.18 72.13 484.72 77.15 484.73 82.35
  Q 484.77 147.80 484.56 213.25
  Q 484.53 222.48 483.50 226.03
  C 480.39 236.68 470.03 238.71 460.37 237.60
  A 2.20 2.20 0.0 0 0 457.92 239.89
  L 458.16 245.38
  A 1.46 1.46 0.0 0 0 459.62 246.77
  L 555.26 246.77
  A 1.27 1.27 0.0 0 0 556.53 245.48
  L 556.41 239.13
  A 1.27 1.26 88.9 0 0 555.13 237.89
  Q 549.30 238.00 543.43 236.98
  C 531.91 234.98 530.01 226.12 530.01 216.00
  Q 529.99 187.84 529.84 158.71
  A 1.70 1.70 0.0 0 1 531.54 157.00
  L 541.47 156.99
  A 4.60 4.58 -16.8 0 1 545.29 159.03
  Q 573.61 201.22 602.06 243.87
  Q 604.06 246.88 607.75 246.87
  Q 635.00 246.82 662.25 246.55
  C 665.92 246.51 664.90 240.98 664.71 238.93
  Q 664.66 238.35 664.09 238.25
  C 661.62 237.84 658.80 237.70 656.67 237.07
  C 647.90 234.47 643.47 227.22 638.64 220.12
  Q 615.63 186.26 592.79 152.26
  A 0.60 0.60 0.0 0 1 593.08 151.37"
/>
<path stroke="#808080" vector-effect="non-scaling-stroke" d="
  M 883.12 75.15
  Q 917.19 158.61 951.73 244.01
  Q 953.50 248.41 958.30 246.43
  A 1.55 1.54 -0.6 0 0 959.14 245.58
  L 1028.89 71.44
  A 0.47 0.47 0.0 0 1 1029.73 71.38
  Q 1029.85 71.60 1029.85 72.00
  Q 1029.76 142.29 1029.74 212.57
  C 1029.74 217.11 1029.59 223.70 1028.12 227.66
  C 1024.12 238.40 1013.81 237.97 1003.70 238.18
  A 0.65 0.64 -89.0 0 0 1003.07 238.80
  L 1002.81 245.92
  A 0.87 0.87 0.0 0 0 1003.68 246.82
  L 1101.50 246.82
  Q 1102.82 246.82 1102.82 245.50
  L 1102.81 240.05
  A 2.20 2.20 0.0 0 0 1100.35 237.86
  Q 1093.14 238.70 1086.33 236.36
  C 1075.52 232.64 1076.00 222.43 1076.00 213.16
  Q 1075.98 146.20 1076.22 79.25
  Q 1076.23 75.59 1076.34 71.87
  C 1076.79 56.14 1085.90 54.30 1099.58 53.49
  C 1103.98 53.23 1103.29 50.26 1102.90 46.96
  C 1102.65 44.80 1101.91 44.77 1100.00 44.77
  Q 1062.17 44.73 1023.69 44.78
  A 2.22 2.22 0.0 0 0 1021.62 46.20
  L 972.22 173.46
  A 0.36 0.36 0.0 0 1 971.56 173.50
  Q 969.65 169.77 968.02 165.73
  Q 943.99 106.44 919.56 46.36
  Q 918.89 44.71 917.11 44.72
  Q 879.88 44.84 843.21 44.65
  C 839.48 44.63 840.20 47.42 840.15 49.99
  Q 840.12 51.52 840.67 53.18
  Q 840.84 53.72 841.40 53.66
  C 851.03 52.71 864.07 55.90 865.23 67.50
  Q 865.71 72.23 865.76 86.75
  C 865.93 129.11 866.68 171.60 865.67 213.94
  Q 865.51 220.40 864.21 223.94
  Q 859.07 237.88 842.03 237.96
  Q 840.10 237.97 840.16 239.90
  L 840.36 245.59
  A 1.22 1.22 0.0 0 0 841.58 246.77
  L 905.26 246.77
  A 0.67 0.66 5.1 0 0 905.92 246.23
  Q 906.57 242.94 905.78 239.62
  Q 905.44 238.18 903.50 238.10
  Q 887.70 237.47 883.26 224.58
  Q 881.75 220.17 881.74 209.77
  Q 881.67 143.74 881.72 75.42
  Q 881.73 71.73 883.12 75.15"
/>
<path stroke="#808080" vector-effect="non-scaling-stroke" d="
  M 779.56 59.76
  C 784.35 53.97 793.37 53.33 800.28 53.55
  A 2.12 2.12 0.0 0 0 802.47 51.44
  L 802.52 46.26
  Q 802.53 44.75 801.01 44.75
  L 703.50 44.75
  A 0.82 0.82 0.0 0 0 702.69 45.45
  C 702.35 47.88 701.41 53.83 705.52 53.57
  C 716.34 52.88 728.02 56.34 728.87 69.06
  Q 729.42 77.22 729.42 80.00
  Q 729.30 145.51 729.28 211.02
  C 729.27 223.27 729.13 236.49 713.55 237.57
  C 709.91 237.82 707.00 238.12 703.75 237.93
  A 1.16 1.16 0.0 0 0 702.52 239.09
  L 702.49 245.25
  Q 702.48 246.77 704.00 246.77
  L 801.28 246.77
  A 1.18 1.18 0.0 0 0 802.46 245.60
  L 802.56 239.63
  A 1.64 1.63 1.4 0 0 800.97 237.97
  C 796.17 237.84 790.34 238.26 786.19 236.69
  C 774.71 232.37 775.49 220.55 775.48 210.25
  Q 775.47 146.37 775.56 82.50
  Q 775.57 74.25 776.59 67.43
  Q 777.34 62.45 779.56 59.76"
/>
<path stroke="#808080" vector-effect="non-scaling-stroke" d="
  M 1482.04 151.32
  C 1486.82 149.44 1492.26 147.84 1496.36 145.71
  C 1517.41 134.79 1527.36 113.89 1522.76 90.24
  Q 1517.29 62.16 1492.26 51.82
  Q 1485.14 48.88 1472.93 46.87
  Q 1460.62 44.85 1451.25 44.83
  Q 1399.69 44.71 1348.68 44.74
  A 1.63 1.63 0.0 0 0 1347.05 46.41
  L 1347.22 52.61
  A 0.74 0.73 -87.8 0 0 1347.87 53.32
  C 1353.01 53.86 1358.66 53.87 1363.58 55.81
  C 1372.79 59.43 1372.75 66.66 1373.40 75.34
  Q 1373.70 79.33 1373.70 83.68
  Q 1373.69 148.46 1373.64 213.25
  C 1373.63 223.40 1372.95 234.26 1361.21 236.83
  Q 1355.43 238.10 1349.50 238.28
  C 1346.21 238.39 1347.06 243.80 1347.27 245.86
  A 0.98 0.97 87.4 0 0 1348.24 246.75
  L 1443.97 246.80
  A 1.67 1.66 88.1 0 0 1445.63 245.02
  L 1445.21 239.03
  Q 1445.16 238.33 1444.46 238.27
  C 1433.68 237.30 1421.75 238.45 1419.75 223.98
  Q 1419.08 219.22 1419.06 217.75
  Q 1418.62 188.62 1418.84 159.19
  Q 1418.86 157.01 1421.04 157.01
  L 1429.91 157.00
  A 5.38 5.35 -16.8 0 1 1434.37 159.37
  Q 1462.63 201.40 1491.36 244.14
  Q 1493.15 246.80 1495.50 246.80
  Q 1522.88 246.83 1550.27 246.75
  C 1554.95 246.73 1553.94 241.65 1553.63 238.79
  A 0.73 0.72 86.9 0 0 1552.91 238.14
  C 1540.30 238.15 1534.03 230.33 1527.66 220.83
  Q 1504.68 186.59 1481.73 152.29
  A 0.66 0.65 -27.6 0 1 1482.04 151.32"
/>
<path stroke="#79060f" vector-effect="non-scaling-stroke" d="
  M 253.61 276.62
  Q 252.20 280.37 249.18 282.85
  Q 248.73 283.22 248.20 282.98
  Q 199.63 260.50 158.39 236.88
  Q 111.65 210.10 64.83 183.48
  Q 61.60 181.64 58.45 180.03
  A 0.89 0.89 0.0 0 0 57.36 181.39
  Q 58.38 182.60 59.90 183.85
  C 95.43 212.98 133.48 237.85 173.30 260.68
  Q 215.11 284.65 236.77 297.51
  Q 237.83 298.14 238.89 298.90
  A 0.90 0.89 -68.9 0 1 239.26 299.75
  C 238.98 301.89 237.40 307.64 234.21 306.05
  Q 218.88 298.45 190.92 282.54
  C 143.17 255.36 96.54 226.36 49.62 197.80
  Q 46.99 196.20 43.85 195.14
  A 0.54 0.54 0.0 0 0 43.21 195.92
  Q 43.93 197.20 45.67 198.59
  Q 92.71 236.19 135.13 264.60
  Q 175.93 291.93 217.22 318.50
  Q 220.21 320.43 222.84 322.86
  Q 223.23 323.22 223.16 323.76
  Q 222.75 326.97 220.55 329.26
  A 1.02 1.01 30.8 0 1 219.50 329.52
  Q 216.39 328.54 212.65 326.62
  C 174.35 306.98 138.34 283.76 103.12 259.36
  Q 68.25 235.20 33.69 210.59
  A 0.65 0.65 0.0 0 0 32.86 210.65
  L 32.48 211.02
  A 1.08 1.08 0.0 0 0 32.42 212.50
  Q 35.03 215.48 38.03 218.47
  C 78.55 258.95 126.17 294.91 173.22 324.30
  Q 198.67 340.20 223.72 351.01
  C 231.65 354.43 240.96 357.21 249.90 356.89
  Q 256.81 356.65 262.75 355.47
  Q 282.96 351.48 302.28 345.34
  A 3.12 3.11 -41.7 0 1 304.49 345.46
  Q 399.86 387.08 501.16 412.89
  Q 511.11 415.43 520.62 417.55
  Q 580.86 431.02 637.51 436.44
  Q 732.18 445.48 829.23 430.64
  Q 894.37 420.67 956.49 403.40
  Q 1012.08 387.95 1073.91 369.43
  C 1129.39 352.81 1173.29 341.56 1225.51 331.54
  Q 1363.92 305.00 1502.19 326.15
  C 1511.71 327.61 1519.27 329.45 1528.21 332.09
  C 1575.16 345.95 1617.33 360.03 1661.73 374.47
  C 1664.12 375.25 1669.80 377.24 1673.00 376.12
  C 1678.82 374.08 1684.28 368.05 1687.00 362.78
  C 1691.79 353.52 1688.80 341.81 1683.20 333.58
  C 1682.00 331.81 1680.25 330.94 1678.25 330.76
  Q 1604.71 324.10 1531.65 313.44
  C 1513.25 310.76 1493.85 306.79 1476.24 304.01
  Q 1389.29 290.26 1300.50 294.50
  Q 1253.37 296.75 1216.24 301.98
  C 1125.27 314.79 1032.81 339.57 941.76 361.84
  Q 871.65 378.99 800.24 389.32
  Q 700.71 403.71 600.53 394.94
  Q 521.19 388.00 444.27 367.48
  Q 410.89 358.58 378.08 347.80
  Q 371.63 345.68 365.45 342.53
  Q 340.97 330.03 316.69 317.01
  Q 316.24 316.77 316.05 316.30
  C 308.40 297.53 294.94 279.95 276.77 270.27
  Q 174.93 216.01 72.60 162.68
  Q 71.85 162.29 71.54 162.43
  A 0.95 0.95 0.0 0 0 71.23 163.96
  Q 74.72 167.59 78.73 170.55
  Q 90.92 179.57 103.57 187.92
  Q 175.58 235.43 252.89 274.78
  Q 254.07 275.38 253.61 276.62"
/>
<path stroke="#808080" vector-effect="non-scaling-stroke" d="
  M 1257.06 65.82
  C 1244.26 53.21 1224.28 50.70 1208.81 58.71
  C 1194.07 66.35 1187.51 80.07 1182.51 95.04
  Q 1179.95 102.72 1178.96 109.50
  Q 1175.27 134.69 1176.94 163.25
  C 1178.39 187.86 1185.85 228.40 1214.78 236.13
  C 1232.15 240.77 1250.84 235.99 1261.36 220.37
  C 1269.34 208.51 1273.18 196.79 1275.48 181.92
  Q 1281.82 140.88 1274.07 100.96
  C 1271.79 89.21 1265.69 74.31 1257.06 65.82"
/>
<path stroke="#808080" vector-effect="non-scaling-stroke" d="
  M 377.92 138.89
  C 398.53 130.53 400.46 105.14 396.68 86.75
  C 392.43 66.07 375.27 59.49 356.02 61.12
  A 0.84 0.83 -2.6 0 0 355.26 61.95
  Q 355.24 99.90 355.26 137.80
  C 355.26 139.66 355.18 141.13 357.48 141.23
  C 364.27 141.54 371.84 141.35 377.92 138.89"
/>
<path stroke="#808080" vector-effect="non-scaling-stroke" d="
  M 581.56 126.99
  C 590.96 113.34 591.17 84.90 580.40 71.89
  Q 574.44 64.69 564.76 62.67
  Q 551.34 59.89 534.05 60.57
  C 532.88 60.62 531.58 60.25 530.28 61.01
  Q 529.82 61.28 529.82 61.82
  L 530.04 140.41
  A 1.31 1.30 -89.3 0 0 531.31 141.72
  Q 542.04 142.01 552.72 141.05
  C 565.53 139.90 574.61 137.08 581.56 126.99"
/>
<path stroke="#808080" vector-effect="non-scaling-stroke" d="
  M 1474.21 80.51
  C 1471.25 72.21 1463.70 64.38 1454.74 62.66
  Q 1437.29 59.30 1420.30 60.69
  Q 1418.83 60.81 1418.83 62.28
  L 1418.75 140.23
  A 1.44 1.44 0.0 0 0 1420.15 141.67
  Q 1432.51 142.07 1445.25 140.76
  C 1466.55 138.57 1475.63 124.33 1477.18 104.62
  Q 1478.20 91.71 1474.21 80.51"
/>
</g>
<path fill="#000000" d="
  M 0.00 0.00
  L 1723.00 0.00
  L 1723.00 489.00
  L 0.00 489.00
  L 0.00 0.00
  Z
  M 1308.49 79.52
  C 1291.48 56.55 1264.14 42.70 1235.74 42.05
  Q 1220.86 41.71 1216.00 42.00
  C 1176.71 44.31 1143.23 71.43 1131.23 108.64
  Q 1121.11 140.03 1128.59 173.03
  C 1136.13 206.35 1158.77 235.64 1191.25 245.95
  C 1214.54 253.35 1243.71 253.70 1266.97 244.58
  C 1330.18 219.82 1347.44 132.11 1308.49 79.52
  Z
  M 355.44 158.84
  A 1.33 1.33 0.0 0 1 356.78 157.54
  Q 371.86 157.64 386.50 156.23
  C 406.87 154.27 425.00 147.63 436.84 130.22
  C 447.12 115.10 448.78 94.43 440.88 77.99
  C 434.27 64.22 421.34 54.08 406.82 49.68
  C 397.56 46.86 384.34 44.78 374.00 44.78
  Q 329.70 44.75 285.76 44.64
  A 1.88 1.88 0.0 0 0 283.88 46.65
  L 284.28 52.66
  A 0.70 0.70 0.0 0 0 284.91 53.31
  C 292.00 54.04 301.16 53.83 306.50 59.50
  Q 309.37 62.55 309.71 66.25
  C 310.22 71.81 310.73 77.26 310.73 82.92
  Q 310.73 146.84 310.50 210.75
  Q 310.47 219.50 310.05 223.01
  C 308.40 236.53 297.91 237.33 287.00 237.95
  C 285.06 238.07 284.41 238.57 284.27 240.50
  Q 284.07 243.26 284.26 245.63
  A 1.20 1.20 0.0 0 0 285.46 246.73
  L 380.48 246.77
  A 1.59 1.58 88.1 0 0 382.06 245.08
  L 381.64 238.87
  Q 381.60 238.18 380.91 238.11
  C 375.97 237.55 369.67 237.66 365.62 236.23
  C 357.24 233.28 355.79 226.53 355.56 217.82
  Q 354.75 188.02 355.44 158.84
  Z
  M 593.08 151.37
  C 598.38 149.38 604.23 147.50 608.77 145.01
  Q 616.09 140.98 621.19 135.73
  Q 636.73 119.69 634.53 96.54
  Q 631.75 67.38 607.90 53.98
  Q 602.30 50.83 594.09 48.89
  Q 577.37 44.93 563.75 44.87
  Q 514.40 44.67 465.04 44.77
  C 463.11 44.77 460.37 43.74 458.29 45.44
  A 1.09 1.07 -21.7 0 0 457.90 46.33
  L 458.25 52.69
  Q 458.28 53.23 458.82 53.30
  C 468.05 54.50 482.38 54.05 483.67 67.01
  C 484.18 72.13 484.72 77.15 484.73 82.35
  Q 484.77 147.80 484.56 213.25
  Q 484.53 222.48 483.50 226.03
  C 480.39 236.68 470.03 238.71 460.37 237.60
  A 2.20 2.20 0.0 0 0 457.92 239.89
  L 458.16 245.38
  A 1.46 1.46 0.0 0 0 459.62 246.77
  L 555.26 246.77
  A 1.27 1.27 0.0 0 0 556.53 245.48
  L 556.41 239.13
  A 1.27 1.26 88.9 0 0 555.13 237.89
  Q 549.30 238.00 543.43 236.98
  C 531.91 234.98 530.01 226.12 530.01 216.00
  Q 529.99 187.84 529.84 158.71
  A 1.70 1.70 0.0 0 1 531.54 157.00
  L 541.47 156.99
  A 4.60 4.58 -16.8 0 1 545.29 159.03
  Q 573.61 201.22 602.06 243.87
  Q 604.06 246.88 607.75 246.87
  Q 635.00 246.82 662.25 246.55
  C 665.92 246.51 664.90 240.98 664.71 238.93
  Q 664.66 238.35 664.09 238.25
  C 661.62 237.84 658.80 237.70 656.67 237.07
  C 647.90 234.47 643.47 227.22 638.64 220.12
  Q 615.63 186.26 592.79 152.26
  A 0.60 0.60 0.0 0 1 593.08 151.37
  Z
  M 883.12 75.15
  Q 917.19 158.61 951.73 244.01
  Q 953.50 248.41 958.30 246.43
  A 1.55 1.54 -0.6 0 0 959.14 245.58
  L 1028.89 71.44
  A 0.47 0.47 0.0 0 1 1029.73 71.38
  Q 1029.85 71.60 1029.85 72.00
  Q 1029.76 142.29 1029.74 212.57
  C 1029.74 217.11 1029.59 223.70 1028.12 227.66
  C 1024.12 238.40 1013.81 237.97 1003.70 238.18
  A 0.65 0.64 -89.0 0 0 1003.07 238.80
  L 1002.81 245.92
  A 0.87 0.87 0.0 0 0 1003.68 246.82
  L 1101.50 246.82
  Q 1102.82 246.82 1102.82 245.50
  L 1102.81 240.05
  A 2.20 2.20 0.0 0 0 1100.35 237.86
  Q 1093.14 238.70 1086.33 236.36
  C 1075.52 232.64 1076.00 222.43 1076.00 213.16
  Q 1075.98 146.20 1076.22 79.25
  Q 1076.23 75.59 1076.34 71.87
  C 1076.79 56.14 1085.90 54.30 1099.58 53.49
  C 1103.98 53.23 1103.29 50.26 1102.90 46.96
  C 1102.65 44.80 1101.91 44.77 1100.00 44.77
  Q 1062.17 44.73 1023.69 44.78
  A 2.22 2.22 0.0 0 0 1021.62 46.20
  L 972.22 173.46
  A 0.36 0.36 0.0 0 1 971.56 173.50
  Q 969.65 169.77 968.02 165.73
  Q 943.99 106.44 919.56 46.36
  Q 918.89 44.71 917.11 44.72
  Q 879.88 44.84 843.21 44.65
  C 839.48 44.63 840.20 47.42 840.15 49.99
  Q 840.12 51.52 840.67 53.18
  Q 840.84 53.72 841.40 53.66
  C 851.03 52.71 864.07 55.90 865.23 67.50
  Q 865.71 72.23 865.76 86.75
  C 865.93 129.11 866.68 171.60 865.67 213.94
  Q 865.51 220.40 864.21 223.94
  Q 859.07 237.88 842.03 237.96
  Q 840.10 237.97 840.16 239.90
  L 840.36 245.59
  A 1.22 1.22 0.0 0 0 841.58 246.77
  L 905.26 246.77
  A 0.67 0.66 5.1 0 0 905.92 246.23
  Q 906.57 242.94 905.78 239.62
  Q 905.44 238.18 903.50 238.10
  Q 887.70 237.47 883.26 224.58
  Q 881.75 220.17 881.74 209.77
  Q 881.67 143.74 881.72 75.42
  Q 881.73 71.73 883.12 75.15
  Z
  M 779.56 59.76
  C 784.35 53.97 793.37 53.33 800.28 53.55
  A 2.12 2.12 0.0 0 0 802.47 51.44
  L 802.52 46.26
  Q 802.53 44.75 801.01 44.75
  L 703.50 44.75
  A 0.82 0.82 0.0 0 0 702.69 45.45
  C 702.35 47.88 701.41 53.83 705.52 53.57
  C 716.34 52.88 728.02 56.34 728.87 69.06
  Q 729.42 77.22 729.42 80.00
  Q 729.30 145.51 729.28 211.02
  C 729.27 223.27 729.13 236.49 713.55 237.57
  C 709.91 237.82 707.00 238.12 703.75 237.93
  A 1.16 1.16 0.0 0 0 702.52 239.09
  L 702.49 245.25
  Q 702.48 246.77 704.00 246.77
  L 801.28 246.77
  A 1.18 1.18 0.0 0 0 802.46 245.60
  L 802.56 239.63
  A 1.64 1.63 1.4 0 0 800.97 237.97
  C 796.17 237.84 790.34 238.26 786.19 236.69
  C 774.71 232.37 775.49 220.55 775.48 210.25
  Q 775.47 146.37 775.56 82.50
  Q 775.57 74.25 776.59 67.43
  Q 777.34 62.45 779.56 59.76
  Z
  M 1482.04 151.32
  C 1486.82 149.44 1492.26 147.84 1496.36 145.71
  C 1517.41 134.79 1527.36 113.89 1522.76 90.24
  Q 1517.29 62.16 1492.26 51.82
  Q 1485.14 48.88 1472.93 46.87
  Q 1460.62 44.85 1451.25 44.83
  Q 1399.69 44.71 1348.68 44.74
  A 1.63 1.63 0.0 0 0 1347.05 46.41
  L 1347.22 52.61
  A 0.74 0.73 -87.8 0 0 1347.87 53.32
  C 1353.01 53.86 1358.66 53.87 1363.58 55.81
  C 1372.79 59.43 1372.75 66.66 1373.40 75.34
  Q 1373.70 79.33 1373.70 83.68
  Q 1373.69 148.46 1373.64 213.25
  C 1373.63 223.40 1372.95 234.26 1361.21 236.83
  Q 1355.43 238.10 1349.50 238.28
  C 1346.21 238.39 1347.06 243.80 1347.27 245.86
  A 0.98 0.97 87.4 0 0 1348.24 246.75
  L 1443.97 246.80
  A 1.67 1.66 88.1 0 0 1445.63 245.02
  L 1445.21 239.03
  Q 1445.16 238.33 1444.46 238.27
  C 1433.68 237.30 1421.75 238.45 1419.75 223.98
  Q 1419.08 219.22 1419.06 217.75
  Q 1418.62 188.62 1418.84 159.19
  Q 1418.86 157.01 1421.04 157.01
  L 1429.91 157.00
  A 5.38 5.35 -16.8 0 1 1434.37 159.37
  Q 1462.63 201.40 1491.36 244.14
  Q 1493.15 246.80 1495.50 246.80
  Q 1522.88 246.83 1550.27 246.75
  C 1554.95 246.73 1553.94 241.65 1553.63 238.79
  A 0.73 0.72 86.9 0 0 1552.91 238.14
  C 1540.30 238.15 1534.03 230.33 1527.66 220.83
  Q 1504.68 186.59 1481.73 152.29
  A 0.66 0.65 -27.6 0 1 1482.04 151.32
  Z
  M 253.61 276.62
  Q 252.20 280.37 249.18 282.85
  Q 248.73 283.22 248.20 282.98
  Q 199.63 260.50 158.39 236.88
  Q 111.65 210.10 64.83 183.48
  Q 61.60 181.64 58.45 180.03
  A 0.89 0.89 0.0 0 0 57.36 181.39
  Q 58.38 182.60 59.90 183.85
  C 95.43 212.98 133.48 237.85 173.30 260.68
  Q 215.11 284.65 236.77 297.51
  Q 237.83 298.14 238.89 298.90
  A 0.90 0.89 -68.9 0 1 239.26 299.75
  C 238.98 301.89 237.40 307.64 234.21 306.05
  Q 218.88 298.45 190.92 282.54
  C 143.17 255.36 96.54 226.36 49.62 197.80
  Q 46.99 196.20 43.85 195.14
  A 0.54 0.54 0.0 0 0 43.21 195.92
  Q 43.93 197.20 45.67 198.59
  Q 92.71 236.19 135.13 264.60
  Q 175.93 291.93 217.22 318.50
  Q 220.21 320.43 222.84 322.86
  Q 223.23 323.22 223.16 323.76
  Q 222.75 326.97 220.55 329.26
  A 1.02 1.01 30.8 0 1 219.50 329.52
  Q 216.39 328.54 212.65 326.62
  C 174.35 306.98 138.34 283.76 103.12 259.36
  Q 68.25 235.20 33.69 210.59
  A 0.65 0.65 0.0 0 0 32.86 210.65
  L 32.48 211.02
  A 1.08 1.08 0.0 0 0 32.42 212.50
  Q 35.03 215.48 38.03 218.47
  C 78.55 258.95 126.17 294.91 173.22 324.30
  Q 198.67 340.20 223.72 351.01
  C 231.65 354.43 240.96 357.21 249.90 356.89
  Q 256.81 356.65 262.75 355.47
  Q 282.96 351.48 302.28 345.34
  A 3.12 3.11 -41.7 0 1 304.49 345.46
  Q 399.86 387.08 501.16 412.89
  Q 511.11 415.43 520.62 417.55
  Q 580.86 431.02 637.51 436.44
  Q 732.18 445.48 829.23 430.64
  Q 894.37 420.67 956.49 403.40
  Q 1012.08 387.95 1073.91 369.43
  C 1129.39 352.81 1173.29 341.56 1225.51 331.54
  Q 1363.92 305.00 1502.19 326.15
  C 1511.71 327.61 1519.27 329.45 1528.21 332.09
  C 1575.16 345.95 1617.33 360.03 1661.73 374.47
  C 1664.12 375.25 1669.80 377.24 1673.00 376.12
  C 1678.82 374.08 1684.28 368.05 1687.00 362.78
  C 1691.79 353.52 1688.80 341.81 1683.20 333.58
  C 1682.00 331.81 1680.25 330.94 1678.25 330.76
  Q 1604.71 324.10 1531.65 313.44
  C 1513.25 310.76 1493.85 306.79 1476.24 304.01
  Q 1389.29 290.26 1300.50 294.50
  Q 1253.37 296.75 1216.24 301.98
  C 1125.27 314.79 1032.81 339.57 941.76 361.84
  Q 871.65 378.99 800.24 389.32
  Q 700.71 403.71 600.53 394.94
  Q 521.19 388.00 444.27 367.48
  Q 410.89 358.58 378.08 347.80
  Q 371.63 345.68 365.45 342.53
  Q 340.97 330.03 316.69 317.01
  Q 316.24 316.77 316.05 316.30
  C 308.40 297.53 294.94 279.95 276.77 270.27
  Q 174.93 216.01 72.60 162.68
  Q 71.85 162.29 71.54 162.43
  A 0.95 0.95 0.0 0 0 71.23 163.96
  Q 74.72 167.59 78.73 170.55
  Q 90.92 179.57 103.57 187.92
  Q 175.58 235.43 252.89 274.78
  Q 254.07 275.38 253.61 276.62
  Z"
/>
<path fill="#ffffff" d="
  M 1235.74 42.05
  C 1264.14 42.70 1291.48 56.55 1308.49 79.52
  C 1347.44 132.11 1330.18 219.82 1266.97 244.58
  C 1243.71 253.70 1214.54 253.35 1191.25 245.95
  C 1158.77 235.64 1136.13 206.35 1128.59 173.03
  Q 1121.11 140.03 1131.23 108.64
  C 1143.23 71.43 1176.71 44.31 1216.00 42.00
  Q 1220.86 41.71 1235.74 42.05
  Z
  M 1257.06 65.82
  C 1244.26 53.21 1224.28 50.70 1208.81 58.71
  C 1194.07 66.35 1187.51 80.07 1182.51 95.04
  Q 1179.95 102.72 1178.96 109.50
  Q 1175.27 134.69 1176.94 163.25
  C 1178.39 187.86 1185.85 228.40 1214.78 236.13
  C 1232.15 240.77 1250.84 235.99 1261.36 220.37
  C 1269.34 208.51 1273.18 196.79 1275.48 181.92
  Q 1281.82 140.88 1274.07 100.96
  C 1271.79 89.21 1265.69 74.31 1257.06 65.82
  Z"
/>
<path fill="#ffffff" d="
  M 355.44 158.84
  Q 354.75 188.02 355.56 217.82
  C 355.79 226.53 357.24 233.28 365.62 236.23
  C 369.67 237.66 375.97 237.55 380.91 238.11
  Q 381.60 238.18 381.64 238.87
  L 382.06 245.08
  A 1.59 1.58 88.1 0 1 380.48 246.77
  L 285.46 246.73
  A 1.20 1.20 0.0 0 1 284.26 245.63
  Q 284.07 243.26 284.27 240.50
  C 284.41 238.57 285.06 238.07 287.00 237.95
  C 297.91 237.33 308.40 236.53 310.05 223.01
  Q 310.47 219.50 310.50 210.75
  Q 310.73 146.84 310.73 82.92
  C 310.73 77.26 310.22 71.81 309.71 66.25
  Q 309.37 62.55 306.50 59.50
  C 301.16 53.83 292.00 54.04 284.91 53.31
  A 0.70 0.70 0.0 0 1 284.28 52.66
  L 283.88 46.65
  A 1.88 1.88 0.0 0 1 285.76 44.64
  Q 329.70 44.75 374.00 44.78
  C 384.34 44.78 397.56 46.86 406.82 49.68
  C 421.34 54.08 434.27 64.22 440.88 77.99
  C 448.78 94.43 447.12 115.10 436.84 130.22
  C 425.00 147.63 406.87 154.27 386.50 156.23
  Q 371.86 157.64 356.78 157.54
  A 1.33 1.33 0.0 0 0 355.44 158.84
  Z
  M 377.92 138.89
  C 398.53 130.53 400.46 105.14 396.68 86.75
  C 392.43 66.07 375.27 59.49 356.02 61.12
  A 0.84 0.83 -2.6 0 0 355.26 61.95
  Q 355.24 99.90 355.26 137.80
  C 355.26 139.66 355.18 141.13 357.48 141.23
  C 364.27 141.54 371.84 141.35 377.92 138.89
  Z"
/>
<path fill="#ffffff" d="
  M 593.08 151.37
  A 0.60 0.60 0.0 0 0 592.79 152.26
  Q 615.63 186.26 638.64 220.12
  C 643.47 227.22 647.90 234.47 656.67 237.07
  C 658.80 237.70 661.62 237.84 664.09 238.25
  Q 664.66 238.35 664.71 238.93
  C 664.90 240.98 665.92 246.51 662.25 246.55
  Q 635.00 246.82 607.75 246.87
  Q 604.06 246.88 602.06 243.87
  Q 573.61 201.22 545.29 159.03
  A 4.60 4.58 -16.8 0 0 541.47 156.99
  L 531.54 157.00
  A 1.70 1.70 0.0 0 0 529.84 158.71
  Q 529.99 187.84 530.01 216.00
  C 530.01 226.12 531.91 234.98 543.43 236.98
  Q 549.30 238.00 555.13 237.89
  A 1.27 1.26 88.9 0 1 556.41 239.13
  L 556.53 245.48
  A 1.27 1.27 0.0 0 1 555.26 246.77
  L 459.62 246.77
  A 1.46 1.46 0.0 0 1 458.16 245.38
  L 457.92 239.89
  A 2.20 2.20 0.0 0 1 460.37 237.60
  C 470.03 238.71 480.39 236.68 483.50 226.03
  Q 484.53 222.48 484.56 213.25
  Q 484.77 147.80 484.73 82.35
  C 484.72 77.15 484.18 72.13 483.67 67.01
  C 482.38 54.05 468.05 54.50 458.82 53.30
  Q 458.28 53.23 458.25 52.69
  L 457.90 46.33
  A 1.09 1.07 -21.7 0 1 458.29 45.44
  C 460.37 43.74 463.11 44.77 465.04 44.77
  Q 514.40 44.67 563.75 44.87
  Q 577.37 44.93 594.09 48.89
  Q 602.30 50.83 607.90 53.98
  Q 631.75 67.38 634.53 96.54
  Q 636.73 119.69 621.19 135.73
  Q 616.09 140.98 608.77 145.01
  C 604.23 147.50 598.38 149.38 593.08 151.37
  Z
  M 581.56 126.99
  C 590.96 113.34 591.17 84.90 580.40 71.89
  Q 574.44 64.69 564.76 62.67
  Q 551.34 59.89 534.05 60.57
  C 532.88 60.62 531.58 60.25 530.28 61.01
  Q 529.82 61.28 529.82 61.82
  L 530.04 140.41
  A 1.31 1.30 -89.3 0 0 531.31 141.72
  Q 542.04 142.01 552.72 141.05
  C 565.53 139.90 574.61 137.08 581.56 126.99
  Z"
/>
<path fill="#ffffff" d="
  M 883.12 75.15
  Q 881.73 71.73 881.72 75.42
  Q 881.67 143.74 881.74 209.77
  Q 881.75 220.17 883.26 224.58
  Q 887.70 237.47 903.50 238.10
  Q 905.44 238.18 905.78 239.62
  Q 906.57 242.94 905.92 246.23
  A 0.67 0.66 5.1 0 1 905.26 246.77
  L 841.58 246.77
  A 1.22 1.22 0.0 0 1 840.36 245.59
  L 840.16 239.90
  Q 840.10 237.97 842.03 237.96
  Q 859.07 237.88 864.21 223.94
  Q 865.51 220.40 865.67 213.94
  C 866.68 171.60 865.93 129.11 865.76 86.75
  Q 865.71 72.23 865.23 67.50
  C 864.07 55.90 851.03 52.71 841.40 53.66
  Q 840.84 53.72 840.67 53.18
  Q 840.12 51.52 840.15 49.99
  C 840.20 47.42 839.48 44.63 843.21 44.65
  Q 879.88 44.84 917.11 44.72
  Q 918.89 44.71 919.56 46.36
  Q 943.99 106.44 968.02 165.73
  Q 969.65 169.77 971.56 173.50
  A 0.36 0.36 0.0 0 0 972.22 173.46
  L 1021.62 46.20
  A 2.22 2.22 0.0 0 1 1023.69 44.78
  Q 1062.17 44.73 1100.00 44.77
  C 1101.91 44.77 1102.65 44.80 1102.90 46.96
  C 1103.29 50.26 1103.98 53.23 1099.58 53.49
  C 1085.90 54.30 1076.79 56.14 1076.34 71.87
  Q 1076.23 75.59 1076.22 79.25
  Q 1075.98 146.20 1076.00 213.16
  C 1076.00 222.43 1075.52 232.64 1086.33 236.36
  Q 1093.14 238.70 1100.35 237.86
  A 2.20 2.20 0.0 0 1 1102.81 240.05
  L 1102.82 245.50
  Q 1102.82 246.82 1101.50 246.82
  L 1003.68 246.82
  A 0.87 0.87 0.0 0 1 1002.81 245.92
  L 1003.07 238.80
  A 0.65 0.64 -89.0 0 1 1003.70 238.18
  C 1013.81 237.97 1024.12 238.40 1028.12 227.66
  C 1029.59 223.70 1029.74 217.11 1029.74 212.57
  Q 1029.76 142.29 1029.85 72.00
  Q 1029.85 71.60 1029.73 71.38
  A 0.47 0.47 0.0 0 0 1028.89 71.44
  L 959.14 245.58
  A 1.55 1.54 -0.6 0 1 958.30 246.43
  Q 953.50 248.41 951.73 244.01
  Q 917.19 158.61 883.12 75.15
  Z"
/>
<path fill="#ffffff" d="
  M 776.59 67.43
  Q 775.57 74.25 775.56 82.50
  Q 775.47 146.37 775.48 210.25
  C 775.49 220.55 774.71 232.37 786.19 236.69
  C 790.34 238.26 796.17 237.84 800.97 237.97
  A 1.64 1.63 1.4 0 1 802.56 239.63
  L 802.46 245.60
  A 1.18 1.18 0.0 0 1 801.28 246.77
  L 704.00 246.77
  Q 702.48 246.77 702.49 245.25
  L 702.52 239.09
  A 1.16 1.16 0.0 0 1 703.75 237.93
  C 707.00 238.12 709.91 237.82 713.55 237.57
  C 729.13 236.49 729.27 223.27 729.28 211.02
  Q 729.30 145.51 729.42 80.00
  Q 729.42 77.22 728.87 69.06
  C 728.02 56.34 716.34 52.88 705.52 53.57
  C 701.41 53.83 702.35 47.88 702.69 45.45
  A 0.82 0.82 0.0 0 1 703.50 44.75
  L 801.01 44.75
  Q 802.53 44.75 802.52 46.26
  L 802.47 51.44
  A 2.12 2.12 0.0 0 1 800.28 53.55
  C 793.37 53.33 784.35 53.97 779.56 59.76
  Q 777.34 62.45 776.59 67.43
  Z"
/>
<path fill="#ffffff" d="
  M 1482.04 151.32
  A 0.66 0.65 -27.6 0 0 1481.73 152.29
  Q 1504.68 186.59 1527.66 220.83
  C 1534.03 230.33 1540.30 238.15 1552.91 238.14
  A 0.73 0.72 86.9 0 1 1553.63 238.79
  C 1553.94 241.65 1554.95 246.73 1550.27 246.75
  Q 1522.88 246.83 1495.50 246.80
  Q 1493.15 246.80 1491.36 244.14
  Q 1462.63 201.40 1434.37 159.37
  A 5.38 5.35 -16.8 0 0 1429.91 157.00
  L 1421.04 157.01
  Q 1418.86 157.01 1418.84 159.19
  Q 1418.62 188.62 1419.06 217.75
  Q 1419.08 219.22 1419.75 223.98
  C 1421.75 238.45 1433.68 237.30 1444.46 238.27
  Q 1445.16 238.33 1445.21 239.03
  L 1445.63 245.02
  A 1.67 1.66 88.1 0 1 1443.97 246.80
  L 1348.24 246.75
  A 0.98 0.97 87.4 0 1 1347.27 245.86
  C 1347.06 243.80 1346.21 238.39 1349.50 238.28
  Q 1355.43 238.10 1361.21 236.83
  C 1372.95 234.26 1373.63 223.40 1373.64 213.25
  Q 1373.69 148.46 1373.70 83.68
  Q 1373.70 79.33 1373.40 75.34
  C 1372.75 66.66 1372.79 59.43 1363.58 55.81
  C 1358.66 53.87 1353.01 53.86 1347.87 53.32
  A 0.74 0.73 -87.8 0 1 1347.22 52.61
  L 1347.05 46.41
  A 1.63 1.63 0.0 0 1 1348.68 44.74
  Q 1399.69 44.71 1451.25 44.83
  Q 1460.62 44.85 1472.93 46.87
  Q 1485.14 48.88 1492.26 51.82
  Q 1517.29 62.16 1522.76 90.24
  C 1527.36 113.89 1517.41 134.79 1496.36 145.71
  C 1492.26 147.84 1486.82 149.44 1482.04 151.32
  Z
  M 1474.21 80.51
  C 1471.25 72.21 1463.70 64.38 1454.74 62.66
  Q 1437.29 59.30 1420.30 60.69
  Q 1418.83 60.81 1418.83 62.28
  L 1418.75 140.23
  A 1.44 1.44 0.0 0 0 1420.15 141.67
  Q 1432.51 142.07 1445.25 140.76
  C 1466.55 138.57 1475.63 124.33 1477.18 104.62
  Q 1478.20 91.71 1474.21 80.51
  Z"
/>
<path fill="#000000" d="
  M 1208.81 58.71
  C 1224.28 50.70 1244.26 53.21 1257.06 65.82
  C 1265.69 74.31 1271.79 89.21 1274.07 100.96
  Q 1281.82 140.88 1275.48 181.92
  C 1273.18 196.79 1269.34 208.51 1261.36 220.37
  C 1250.84 235.99 1232.15 240.77 1214.78 236.13
  C 1185.85 228.40 1178.39 187.86 1176.94 163.25
  Q 1175.27 134.69 1178.96 109.50
  Q 1179.95 102.72 1182.51 95.04
  C 1187.51 80.07 1194.07 66.35 1208.81 58.71
  Z"
/>
<path fill="#000000" d="
  M 1454.74 62.66
  C 1463.70 64.38 1471.25 72.21 1474.21 80.51
  Q 1478.20 91.71 1477.18 104.62
  C 1475.63 124.33 1466.55 138.57 1445.25 140.76
  Q 1432.51 142.07 1420.15 141.67
  A 1.44 1.44 0.0 0 1 1418.75 140.23
  L 1418.83 62.28
  Q 1418.83 60.81 1420.30 60.69
  Q 1437.29 59.30 1454.74 62.66
  Z"
/>
<path fill="#000000" d="
  M 581.56 126.99
  C 574.61 137.08 565.53 139.90 552.72 141.05
  Q 542.04 142.01 531.31 141.72
  A 1.31 1.30 -89.3 0 1 530.04 140.41
  L 529.82 61.82
  Q 529.82 61.28 530.28 61.01
  C 531.58 60.25 532.88 60.62 534.05 60.57
  Q 551.34 59.89 564.76 62.67
  Q 574.44 64.69 580.40 71.89
  C 591.17 84.90 590.96 113.34 581.56 126.99
  Z"
/>
<path fill="#000000" d="
  M 396.68 86.75
  C 400.46 105.14 398.53 130.53 377.92 138.89
  C 371.84 141.35 364.27 141.54 357.48 141.23
  C 355.18 141.13 355.26 139.66 355.26 137.80
  Q 355.24 99.90 355.26 61.95
  A 0.84 0.83 -2.6 0 1 356.02 61.12
  C 375.27 59.49 392.43 66.07 396.68 86.75
  Z"
/>
<path fill="#f20b1d" d="
  M 253.61 276.62
  Q 254.07 275.38 252.89 274.78
  Q 175.58 235.43 103.57 187.92
  Q 90.92 179.57 78.73 170.55
  Q 74.72 167.59 71.23 163.96
  A 0.95 0.95 0.0 0 1 71.54 162.43
  Q 71.85 162.29 72.60 162.68
  Q 174.93 216.01 276.77 270.27
  C 294.94 279.95 308.40 297.53 316.05 316.30
  Q 316.24 316.77 316.69 317.01
  Q 340.97 330.03 365.45 342.53
  Q 371.63 345.68 378.08 347.80
  Q 410.89 358.58 444.27 367.48
  Q 521.19 388.00 600.53 394.94
  Q 700.71 403.71 800.24 389.32
  Q 871.65 378.99 941.76 361.84
  C 1032.81 339.57 1125.27 314.79 1216.24 301.98
  Q 1253.37 296.75 1300.50 294.50
  Q 1389.29 290.26 1476.24 304.01
  C 1493.85 306.79 1513.25 310.76 1531.65 313.44
  Q 1604.71 324.10 1678.25 330.76
  C 1680.25 330.94 1682.00 331.81 1683.20 333.58
  C 1688.80 341.81 1691.79 353.52 1687.00 362.78
  C 1684.28 368.05 1678.82 374.08 1673.00 376.12
  C 1669.80 377.24 1664.12 375.25 1661.73 374.47
  C 1617.33 360.03 1575.16 345.95 1528.21 332.09
  C 1519.27 329.45 1511.71 327.61 1502.19 326.15
  Q 1363.92 305.00 1225.51 331.54
  C 1173.29 341.56 1129.39 352.81 1073.91 369.43
  Q 1012.08 387.95 956.49 403.40
  Q 894.37 420.67 829.23 430.64
  Q 732.18 445.48 637.51 436.44
  Q 580.86 431.02 520.62 417.55
  Q 511.11 415.43 501.16 412.89
  Q 399.86 387.08 304.49 345.46
  A 3.12 3.11 -41.7 0 0 302.28 345.34
  Q 282.96 351.48 262.75 355.47
  Q 256.81 356.65 249.90 356.89
  C 240.96 357.21 231.65 354.43 223.72 351.01
  Q 198.67 340.20 173.22 324.30
  C 126.17 294.91 78.55 258.95 38.03 218.47
  Q 35.03 215.48 32.42 212.50
  A 1.08 1.08 0.0 0 1 32.48 211.02
  L 32.86 210.65
  A 0.65 0.65 0.0 0 1 33.69 210.59
  Q 68.25 235.20 103.12 259.36
  C 138.34 283.76 174.35 306.98 212.65 326.62
  Q 216.39 328.54 219.50 329.52
  A 1.02 1.01 30.8 0 0 220.55 329.26
  Q 222.75 326.97 223.16 323.76
  Q 223.23 323.22 222.84 322.86
  Q 220.21 320.43 217.22 318.50
  Q 175.93 291.93 135.13 264.60
  Q 92.71 236.19 45.67 198.59
  Q 43.93 197.20 43.21 195.92
  A 0.54 0.54 0.0 0 1 43.85 195.14
  Q 46.99 196.20 49.62 197.80
  C 96.54 226.36 143.17 255.36 190.92 282.54
  Q 218.88 298.45 234.21 306.05
  C 237.40 307.64 238.98 301.89 239.26 299.75
  A 0.90 0.89 -68.9 0 0 238.89 298.90
  Q 237.83 298.14 236.77 297.51
  Q 215.11 284.65 173.30 260.68
  C 133.48 237.85 95.43 212.98 59.90 183.85
  Q 58.38 182.60 57.36 181.39
  A 0.89 0.89 0.0 0 1 58.45 180.03
  Q 61.60 181.64 64.83 183.48
  Q 111.65 210.10 158.39 236.88
  Q 199.63 260.50 248.20 282.98
  Q 248.73 283.22 249.18 282.85
  Q 252.20 280.37 253.61 276.62
  Z"
/>
</svg>
