<?xml version="1.0" encoding="UTF-8" standalone="no"?>
<!DOCTYPE svg PUBLIC "-//W3C//DTD SVG 1.1//EN" "http://www.w3.org/Graphics/SVG/1.1/DTD/svg11.dtd">
<svg xmlns="http://www.w3.org/2000/svg" version="1.1" viewBox="0.00 0.00 60.00 60.00">
<g stroke-width="2.00" fill="none" stroke-linecap="butt">
<path stroke="#808080" vector-effect="non-scaling-stroke" d="
  M 33.63 8.44
  C 31.31 6.88 28.73 5.84 26.11 7.40
  C 22.68 9.45 19.58 10.36 15.31 10.00
  C 11.84 9.70 8.88 11.96 8.72 15.55
  Q 8.00 31.13 7.29 47.14
  Q 7.11 51.23 7.53 52.58
  Q 8.64 56.18 12.73 56.28
  Q 23.06 56.52 44.89 56.36
  Q 48.19 56.33 49.77 53.97
  C 51.32 51.66 50.68 48.89 50.59 46.25
  Q 50.03 29.93 49.15 15.01
  C 48.97 11.95 46.34 10.00 43.28 10.04
  C 40.64 10.07 35.92 9.99 33.63 8.44"
/>
<path stroke="#808080" vector-effect="non-scaling-stroke" d="
  M 21.23 13.29
  Q 21.10 13.20 20.98 13.10
  Q 20.75 12.92 20.45 12.89
  Q 16.58 12.46 13.43 12.97
  Q 11.54 13.27 11.46 15.18
  L 9.90 50.69
  A 2.79 2.79 0.0 0 0 12.69 53.60
  L 45.24 53.61
  A 2.62 2.62 0.0 0 0 47.85 51.26
  Q 48.00 49.89 47.95 48.52
  Q 47.41 31.83 46.45 15.74
  Q 46.27 12.87 43.66 12.75
  C 40.02 12.59 36.66 13.58 33.07 13.61
  Q 27.10 13.66 21.90 13.52
  Q 21.53 13.51 21.23 13.29"
/>
<path stroke="#808080" vector-effect="non-scaling-stroke" d="
  M 38.4298 22.8787
  A 1.31 1.31 0.0 0 0 37.1152 21.5733
  L 21.8153 21.6267
  A 1.31 1.31 0.0 0 0 20.5099 22.9413
  L 20.5102 23.0413
  A 1.31 1.31 0.0 0 0 21.8248 24.3467
  L 37.1247 24.2933
  A 1.31 1.31 0.0 0 0 38.4301 22.9787
  L 38.4298 22.8787"
/>
<path stroke="#808080" vector-effect="non-scaling-stroke" d="
  M 38.3504 32.9667
  A 1.26 1.26 0.0 0 0 37.0970 31.7001
  L 21.7972 31.6200
  A 1.26 1.26 0.0 0 0 20.5306 32.8733
  L 20.5296 33.0733
  A 1.26 1.26 0.0 0 0 21.7830 34.3399
  L 37.0828 34.4200
  A 1.26 1.26 0.0 0 0 38.3494 33.1667
  L 38.3504 32.9667"
/>
<path stroke="#808080" vector-effect="non-scaling-stroke" d="
  M 38.3999 42.9544
  A 1.23 1.23 0.0 0 0 37.1678 41.7265
  L 21.7478 41.7535
  A 1.23 1.23 0.0 0 0 20.5200 42.9856
  L 20.5201 43.0456
  A 1.23 1.23 0.0 0 0 21.7522 44.2735
  L 37.1722 44.2465
  A 1.23 1.23 0.0 0 0 38.4000 43.0144
  L 38.3999 42.9544"
/>
</g>
<path fill="#000000" d="
  M 0.00 0.00
  L 60.00 0.00
  L 60.00 60.00
  L 0.00 60.00
  L 0.00 0.00
  Z
  M 33.63 8.44
  C 31.31 6.88 28.73 5.84 26.11 7.40
  C 22.68 9.45 19.58 10.36 15.31 10.00
  C 11.84 9.70 8.88 11.96 8.72 15.55
  Q 8.00 31.13 7.29 47.14
  Q 7.11 51.23 7.53 52.58
  Q 8.64 56.18 12.73 56.28
  Q 23.06 56.52 44.89 56.36
  Q 48.19 56.33 49.77 53.97
  C 51.32 51.66 50.68 48.89 50.59 46.25
  Q 50.03 29.93 49.15 15.01
  C 48.97 11.95 46.34 10.00 43.28 10.04
  C 40.64 10.07 35.92 9.99 33.63 8.44
  Z"
/>
<path fill="#ffffff" d="
  M 26.11 7.40
  C 28.73 5.84 31.31 6.88 33.63 8.44
  C 35.92 9.99 40.64 10.07 43.28 10.04
  C 46.34 10.00 48.97 11.95 49.15 15.01
  Q 50.03 29.93 50.59 46.25
  C 50.68 48.89 51.32 51.66 49.77 53.97
  Q 48.19 56.33 44.89 56.36
  Q 23.06 56.52 12.73 56.28
  Q 8.64 56.18 7.53 52.58
  Q 7.11 51.23 7.29 47.14
  Q 8.00 31.13 8.72 15.55
  C 8.88 11.96 11.84 9.70 15.31 10.00
  C 19.58 10.36 22.68 9.45 26.11 7.40
  Z
  M 21.23 13.29
  Q 21.10 13.20 20.98 13.10
  Q 20.75 12.92 20.45 12.89
  Q 16.58 12.46 13.43 12.97
  Q 11.54 13.27 11.46 15.18
  L 9.90 50.69
  A 2.79 2.79 0.0 0 0 12.69 53.60
  L 45.24 53.61
  A 2.62 2.62 0.0 0 0 47.85 51.26
  Q 48.00 49.89 47.95 48.52
  Q 47.41 31.83 46.45 15.74
  Q 46.27 12.87 43.66 12.75
  C 40.02 12.59 36.66 13.58 33.07 13.61
  Q 27.10 13.66 21.90 13.52
  Q 21.53 13.51 21.23 13.29
  Z"
/>
<path fill="#000000" d="
  M 21.90 13.52
  Q 27.10 13.66 33.07 13.61
  C 36.66 13.58 40.02 12.59 43.66 12.75
  Q 46.27 12.87 46.45 15.74
  Q 47.41 31.83 47.95 48.52
  Q 48.00 49.89 47.85 51.26
  A 2.62 2.62 0.0 0 1 45.24 53.61
  L 12.69 53.60
  A 2.79 2.79 0.0 0 1 9.90 50.69
  L 11.46 15.18
  Q 11.54 13.27 13.43 12.97
  Q 16.58 12.46 20.45 12.89
  Q 20.75 12.92 20.98 13.10
  Q 21.10 13.20 21.23 13.29
  Q 21.53 13.51 21.90 13.52
  Z
  M 38.4298 22.8787
  A 1.31 1.31 0.0 0 0 37.1152 21.5733
  L 21.8153 21.6267
  A 1.31 1.31 0.0 0 0 20.5099 22.9413
  L 20.5102 23.0413
  A 1.31 1.31 0.0 0 0 21.8248 24.3467
  L 37.1247 24.2933
  A 1.31 1.31 0.0 0 0 38.4301 22.9787
  L 38.4298 22.8787
  Z
  M 38.3504 32.9667
  A 1.26 1.26 0.0 0 0 37.0970 31.7001
  L 21.7972 31.6200
  A 1.26 1.26 0.0 0 0 20.5306 32.8733
  L 20.5296 33.0733
  A 1.26 1.26 0.0 0 0 21.7830 34.3399
  L 37.0828 34.4200
  A 1.26 1.26 0.0 0 0 38.3494 33.1667
  L 38.3504 32.9667
  Z
  M 38.3999 42.9544
  A 1.23 1.23 0.0 0 0 37.1678 41.7265
  L 21.7478 41.7535
  A 1.23 1.23 0.0 0 0 20.5200 42.9856
  L 20.5201 43.0456
  A 1.23 1.23 0.0 0 0 21.7522 44.2735
  L 37.1722 44.2465
  A 1.23 1.23 0.0 0 0 38.4000 43.0144
  L 38.3999 42.9544
  Z"
/>
<rect fill="#ffffff" x="-8.96" y="-1.36" transform="translate(29.47,22.96) rotate(-0.2)" width="17.92" height="2.72" rx="1.31"/>
<rect fill="#ffffff" x="-8.91" y="-1.36" transform="translate(29.44,33.02) rotate(0.3)" width="17.82" height="2.72" rx="1.26"/>
<rect fill="#ffffff" x="-8.94" y="-1.26" transform="translate(29.46,43.00) rotate(-0.1)" width="17.88" height="2.52" rx="1.23"/>
</svg>
