<?xml version="1.0" encoding="UTF-8" standalone="no"?>
<!DOCTYPE svg PUBLIC "-//W3C//DTD SVG 1.1//EN" "http://www.w3.org/Graphics/SVG/1.1/DTD/svg11.dtd">
<svg xmlns="http://www.w3.org/2000/svg" version="1.1" viewBox="0.00 0.00 60.00 60.00">
<g stroke-width="2.00" fill="none" stroke-linecap="butt">
<path stroke="#808080" vector-effect="non-scaling-stroke" d="
  M 36.02 14.43
  Q 35.84 9.49 32.20 7.46
  Q 28.81 5.58 25.32 7.64
  Q 21.78 9.73 21.64 14.38
  Q 21.62 15.04 20.95 15.03
  C 17.91 14.95 13.46 14.33 11.19 16.84
  Q 9.85 18.32 9.74 20.36
  Q 9.02 34.98 8.23 49.67
  C 8.05 53.01 10.81 55.33 13.97 55.34
  Q 29.62 55.42 45.98 55.36
  C 49.90 55.34 52.04 52.30 51.78 48.56
  Q 50.94 36.10 50.33 21.21
  C 50.18 17.50 47.94 14.89 44.04 14.97
  Q 40.26 15.05 36.60 15.00
  Q 36.04 14.99 36.02 14.43"
/>
<path stroke="#808080" vector-effect="non-scaling-stroke" d="
  M 21.75 20.69
  L 21.56 18.19
  Q 21.53 17.71 21.05 17.72
  L 14.70 17.83
  A 2.19 2.19 0.0 0 0 12.55 19.90
  L 10.96 49.20
  Q 10.78 52.62 14.20 52.62
  L 46.04 52.62
  A 3.01 3.01 0.0 0 0 49.05 49.45
  L 47.47 20.56
  Q 47.31 17.75 44.50 17.75
  L 36.50 17.75
  A 0.50 0.50 0.0 0 0 36.00 18.25
  L 36.00 19.72
  Q 36.00 20.58 35.47 21.26
  Q 35.03 21.83 34.60 21.74
  Q 33.11 21.44 33.20 19.93
  C 33.40 16.30 34.27 10.21 29.43 9.40
  C 23.01 8.33 24.49 17.16 24.35 20.53
  Q 24.31 21.48 23.36 21.51
  L 22.69 21.53
  Q 21.81 21.55 21.75 20.69"
/>
</g>
<path fill="#000000" d="
  M 0.00 0.00
  L 60.00 0.00
  L 60.00 60.00
  L 0.00 60.00
  L 0.00 0.00
  Z
  M 36.02 14.43
  Q 35.84 9.49 32.20 7.46
  Q 28.81 5.58 25.32 7.64
  Q 21.78 9.73 21.64 14.38
  Q 21.62 15.04 20.95 15.03
  C 17.91 14.95 13.46 14.33 11.19 16.84
  Q 9.85 18.32 9.74 20.36
  Q 9.02 34.98 8.23 49.67
  C 8.05 53.01 10.81 55.33 13.97 55.34
  Q 29.62 55.42 45.98 55.36
  C 49.90 55.34 52.04 52.30 51.78 48.56
  Q 50.94 36.10 50.33 21.21
  C 50.18 17.50 47.94 14.89 44.04 14.97
  Q 40.26 15.05 36.60 15.00
  Q 36.04 14.99 36.02 14.43
  Z"
/>
<path fill="#ffffff" d="
  M 36.60 15.00
  Q 40.26 15.05 44.04 14.97
  C 47.94 14.89 50.18 17.50 50.33 21.21
  Q 50.94 36.10 51.78 48.56
  C 52.04 52.30 49.90 55.34 45.98 55.36
  Q 29.62 55.42 13.97 55.34
  C 10.81 55.33 8.05 53.01 8.23 49.67
  Q 9.02 34.98 9.74 20.36
  Q 9.85 18.32 11.19 16.84
  C 13.46 14.33 17.91 14.95 20.95 15.03
  Q 21.62 15.04 21.64 14.38
  Q 21.78 9.73 25.32 7.64
  Q 28.81 5.58 32.20 7.46
  Q 35.84 9.49 36.02 14.43
  Q 36.04 14.99 36.60 15.00
  Z
  M 21.75 20.69
  L 21.56 18.19
  Q 21.53 17.71 21.05 17.72
  L 14.70 17.83
  A 2.19 2.19 0.0 0 0 12.55 19.90
  L 10.96 49.20
  Q 10.78 52.62 14.20 52.62
  L 46.04 52.62
  A 3.01 3.01 0.0 0 0 49.05 49.45
  L 47.47 20.56
  Q 47.31 17.75 44.50 17.75
  L 36.50 17.75
  A 0.50 0.50 0.0 0 0 36.00 18.25
  L 36.00 19.72
  Q 36.00 20.58 35.47 21.26
  Q 35.03 21.83 34.60 21.74
  Q 33.11 21.44 33.20 19.93
  C 33.40 16.30 34.27 10.21 29.43 9.40
  C 23.01 8.33 24.49 17.16 24.35 20.53
  Q 24.31 21.48 23.36 21.51
  L 22.69 21.53
  Q 21.81 21.55 21.75 20.69
  Z"
/>
<path fill="#000000" d="
  M 21.75 20.69
  Q 21.81 21.55 22.69 21.53
  L 23.36 21.51
  Q 24.31 21.48 24.35 20.53
  C 24.49 17.16 23.01 8.33 29.43 9.40
  C 34.27 10.21 33.40 16.30 33.20 19.93
  Q 33.11 21.44 34.60 21.74
  Q 35.03 21.83 35.47 21.26
  Q 36.00 20.58 36.00 19.72
  L 36.00 18.25
  A 0.50 0.50 0.0 0 1 36.50 17.75
  L 44.50 17.75
  Q 47.31 17.75 47.47 20.56
  L 49.05 49.45
  A 3.01 3.01 0.0 0 1 46.04 52.62
  L 14.20 52.62
  Q 10.78 52.62 10.96 49.20
  L 12.55 19.90
  A 2.19 2.19 0.0 0 1 14.70 17.83
  L 21.05 17.72
  Q 21.53 17.71 21.56 18.19
  L 21.75 20.69
  Z"
/>
</svg>
