<?xml version="1.0" encoding="UTF-8" standalone="no"?>
<!DOCTYPE svg PUBLIC "-//W3C//DTD SVG 1.1//EN" "http://www.w3.org/Graphics/SVG/1.1/DTD/svg11.dtd">
<svg xmlns="http://www.w3.org/2000/svg" version="1.1" viewBox="0.00 0.00 60.00 60.00">
<g stroke-width="2.00" fill="none" stroke-linecap="butt">
<path stroke="#808080" vector-effect="non-scaling-stroke" d="
  M 10.21 30.40
  Q 10.32 39.65 10.19 49.86
  C 10.15 53.59 12.27 56.38 16.14 56.38
  Q 30.40 56.39 45.06 56.36
  C 48.63 56.35 50.84 53.56 50.80 50.15
  Q 50.68 39.91 50.79 30.33
  Q 50.79 29.82 51.30 29.75
  Q 52.04 29.65 52.79 29.85
  A 0.99 0.98 27.1 0 0 53.80 29.53
  C 54.83 28.32 56.09 27.82 56.10 25.98
  Q 56.11 24.84 55.17 24.25
  Q 54.47 23.80 53.75 23.19
  Q 43.08 14.10 32.16 4.58
  A 2.49 2.48 -44.8 0 0 28.91 4.57
  L 5.36 24.80
  Q 4.92 25.18 4.93 25.76
  Q 4.98 28.09 7.47 29.58
  Q 8.00 29.90 8.61 29.77
  Q 9.23 29.63 9.80 29.82
  Q 10.21 29.96 10.21 30.40"
/>
<path stroke="#808080" vector-effect="non-scaling-stroke" d="
  M 9.01 24.98
  Q 8.33 25.53 7.68 26.09
  Q 6.61 27.00 8.01 27.00
  L 53.20 27.00
  Q 54.16 27.00 53.43 26.38
  L 31.80 7.89
  A 2.05 2.05 0.0 0 0 29.10 7.91
  Q 18.52 17.27 9.01 24.98"
/>
<path stroke="#808080" vector-effect="non-scaling-stroke" d="
  M 47.07 52.77
  A 1.81 1.78 73.4 0 0 47.87 51.27
  L 47.88 29.46
  Q 47.88 28.79 47.21 28.79
  L 13.67 28.78
  Q 13.12 28.78 13.12 29.33
  L 13.13 50.79
  A 2.83 2.83 0.0 0 0 15.96 53.62
  Q 30.38 53.61 44.32 53.64
  Q 45.76 53.65 47.07 52.77"
/>
</g>
<path fill="#000000" d="
  M 0.00 0.00
  L 60.00 0.00
  L 60.00 60.00
  L 0.00 60.00
  L 0.00 0.00
  Z
  M 10.21 30.40
  Q 10.32 39.65 10.19 49.86
  C 10.15 53.59 12.27 56.38 16.14 56.38
  Q 30.40 56.39 45.06 56.36
  C 48.63 56.35 50.84 53.56 50.80 50.15
  Q 50.68 39.91 50.79 30.33
  Q 50.79 29.82 51.30 29.75
  Q 52.04 29.65 52.79 29.85
  A 0.99 0.98 27.1 0 0 53.80 29.53
  C 54.83 28.32 56.09 27.82 56.10 25.98
  Q 56.11 24.84 55.17 24.25
  Q 54.47 23.80 53.75 23.19
  Q 43.08 14.10 32.16 4.58
  A 2.49 2.48 -44.8 0 0 28.91 4.57
  L 5.36 24.80
  Q 4.92 25.18 4.93 25.76
  Q 4.98 28.09 7.47 29.58
  Q 8.00 29.90 8.61 29.77
  Q 9.23 29.63 9.80 29.82
  Q 10.21 29.96 10.21 30.40
  Z"
/>
<path fill="#ffffff" d="
  M 9.80 29.82
  Q 9.23 29.63 8.61 29.77
  Q 8.00 29.90 7.47 29.58
  Q 4.98 28.09 4.93 25.76
  Q 4.92 25.18 5.36 24.80
  L 28.91 4.57
  A 2.49 2.48 -44.8 0 1 32.16 4.58
  Q 43.08 14.10 53.75 23.19
  Q 54.47 23.80 55.17 24.25
  Q 56.11 24.84 56.10 25.98
  C 56.09 27.82 54.83 28.32 53.80 29.53
  A 0.99 0.98 27.1 0 1 52.79 29.85
  Q 52.04 29.65 51.30 29.75
  Q 50.79 29.82 50.79 30.33
  Q 50.68 39.91 50.80 50.15
  C 50.84 53.56 48.63 56.35 45.06 56.36
  Q 30.40 56.39 16.14 56.38
  C 12.27 56.38 10.15 53.59 10.19 49.86
  Q 10.32 39.65 10.21 30.40
  Q 10.21 29.96 9.80 29.82
  Z
  M 9.01 24.98
  Q 8.33 25.53 7.68 26.09
  Q 6.61 27.00 8.01 27.00
  L 53.20 27.00
  Q 54.16 27.00 53.43 26.38
  L 31.80 7.89
  A 2.05 2.05 0.0 0 0 29.10 7.91
  Q 18.52 17.27 9.01 24.98
  Z
  M 47.07 52.77
  A 1.81 1.78 73.4 0 0 47.87 51.27
  L 47.88 29.46
  Q 47.88 28.79 47.21 28.79
  L 13.67 28.78
  Q 13.12 28.78 13.12 29.33
  L 13.13 50.79
  A 2.83 2.83 0.0 0 0 15.96 53.62
  Q 30.38 53.61 44.32 53.64
  Q 45.76 53.65 47.07 52.77
  Z"
/>
<path fill="#000000" d="
  M 9.01 24.98
  Q 18.52 17.27 29.10 7.91
  A 2.05 2.05 0.0 0 1 31.80 7.89
  L 53.43 26.38
  Q 54.16 27.00 53.20 27.00
  L 8.01 27.00
  Q 6.61 27.00 7.68 26.09
  Q 8.33 25.53 9.01 24.98
  Z"
/>
<path fill="#000000" d="
  M 47.07 52.77
  Q 45.76 53.65 44.32 53.64
  Q 30.38 53.61 15.96 53.62
  A 2.83 2.83 0.0 0 1 13.13 50.79
  L 13.12 29.33
  Q 13.12 28.78 13.67 28.78
  L 47.21 28.79
  Q 47.88 28.79 47.88 29.46
  L 47.87 51.27
  A 1.81 1.78 73.4 0 1 47.07 52.77
  Z"
/>
</svg>
