<?xml version="1.0" encoding="UTF-8" standalone="no"?>
<!DOCTYPE svg PUBLIC "-//W3C//DTD SVG 1.1//EN" "http://www.w3.org/Graphics/SVG/1.1/DTD/svg11.dtd">
<svg xmlns="http://www.w3.org/2000/svg" version="1.1" viewBox="0.00 0.00 52.00 53.00">
<path stroke="#ff9090" stroke-width="2.00" fill="none" stroke-linecap="butt" vector-effect="non-scaling-stroke" d="
  M 25.86 10.60
  Q 23.98 8.52 21.40 7.35
  C 16.10 4.93 10.09 6.73 6.80 11.43
  C 3.84 15.65 4.43 20.93 5.90 25.49
  Q 7.64 30.86 11.71 35.48
  Q 18.02 42.62 25.26 48.12
  Q 25.98 48.66 26.70 48.13
  Q 34.43 42.37 41.03 34.58
  C 46.57 28.03 50.71 16.29 43.30 9.36
  C 38.21 4.60 30.72 5.61 26.15 10.60
  Q 26.00 10.76 25.86 10.60"
/>
<path fill="#ffffff" d="
  M 0.00 0.00
  L 52.00 0.00
  L 52.00 53.00
  L 0.00 53.00
  L 0.00 0.00
  Z
  M 25.86 10.60
  Q 23.98 8.52 21.40 7.35
  C 16.10 4.93 10.09 6.73 6.80 11.43
  C 3.84 15.65 4.43 20.93 5.90 25.49
  Q 7.64 30.86 11.71 35.48
  Q 18.02 42.62 25.26 48.12
  Q 25.98 48.66 26.70 48.13
  Q 34.43 42.37 41.03 34.58
  C 46.57 28.03 50.71 16.29 43.30 9.36
  C 38.21 4.60 30.72 5.61 26.15 10.60
  Q 26.00 10.76 25.86 10.60
  Z"
/>
<path fill="#ff2121" d="
  M 25.86 10.60
  Q 26.00 10.76 26.15 10.60
  C 30.72 5.61 38.21 4.60 43.30 9.36
  C 50.71 16.29 46.57 28.03 41.03 34.58
  Q 34.43 42.37 26.70 48.13
  Q 25.98 48.66 25.26 48.12
  Q 18.02 42.62 11.71 35.48
  Q 7.64 30.86 5.90 25.49
  C 4.43 20.93 3.84 15.65 6.80 11.43
  C 10.09 6.73 16.10 4.93 21.40 7.35
  Q 23.98 8.52 25.86 10.60
  Z"
/>
</svg>
