<?xml version="1.0" encoding="UTF-8" standalone="no"?>
<!DOCTYPE svg PUBLIC "-//W3C//DTD SVG 1.1//EN" "http://www.w3.org/Graphics/SVG/1.1/DTD/svg11.dtd">
<svg xmlns="http://www.w3.org/2000/svg" version="1.1" viewBox="0.00 0.00 44.00 44.00">
<path stroke="#808080" stroke-width="2.00" fill="none" stroke-linecap="butt" vector-effect="non-scaling-stroke" d="
  M 26.00 19.30
  Q 25.99 18.33 26.80 18.86
  Q 28.43 19.94 30.43 20.04
  Q 31.00 20.07 31.00 19.50
  L 31.00 17.22
  Q 31.00 16.53 30.32 16.40
  Q 26.86 15.76 26.04 11.82
  Q 25.98 11.51 25.66 11.51
  L 22.95 11.49
  Q 22.50 11.49 22.50 11.94
  Q 22.49 18.32 22.52 25.74
  C 22.52 27.67 20.86 29.33 18.92 28.86
  C 15.09 27.95 16.13 22.33 20.15 22.78
  A 0.38 0.38 0.0 0 0 20.57 22.38
  L 20.47 19.72
  Q 20.45 19.22 19.95 19.22
  Q 15.50 19.26 13.68 23.07
  C 10.31 30.12 19.85 36.36 24.85 29.67
  C 26.68 27.21 26.02 22.32 26.00 19.30"
/>
<path fill="#000000" d="
  M 20.88 0.00
  L 23.20 0.00
  Q 41.43 2.67 44.00 20.50
  L 44.00 23.32
  Q 41.56 41.29 23.16 44.00
  L 20.72 44.00
  Q 2.29 41.16 0.00 23.25
  L 0.00 19.97
  Q 2.98 2.46 20.88 0.00
  Z
  M 26.00 19.30
  Q 25.99 18.33 26.80 18.86
  Q 28.43 19.94 30.43 20.04
  Q 31.00 20.07 31.00 19.50
  L 31.00 17.22
  Q 31.00 16.53 30.32 16.40
  Q 26.86 15.76 26.04 11.82
  Q 25.98 11.51 25.66 11.51
  L 22.95 11.49
  Q 22.50 11.49 22.50 11.94
  Q 22.49 18.32 22.52 25.74
  C 22.52 27.67 20.86 29.33 18.92 28.86
  C 15.09 27.95 16.13 22.33 20.15 22.78
  A 0.38 0.38 0.0 0 0 20.57 22.38
  L 20.47 19.72
  Q 20.45 19.22 19.95 19.22
  Q 15.50 19.26 13.68 23.07
  C 10.31 30.12 19.85 36.36 24.85 29.67
  C 26.68 27.21 26.02 22.32 26.00 19.30
  Z"
/>
<path fill="#ffffff" d="
  M 26.00 19.30
  C 26.02 22.32 26.68 27.21 24.85 29.67
  C 19.85 36.36 10.31 30.12 13.68 23.07
  Q 15.50 19.26 19.95 19.22
  Q 20.45 19.22 20.47 19.72
  L 20.57 22.38
  A 0.38 0.38 0.0 0 1 20.15 22.78
  C 16.13 22.33 15.09 27.95 18.92 28.86
  C 20.86 29.33 22.52 27.67 22.52 25.74
  Q 22.49 18.32 22.50 11.94
  Q 22.50 11.49 22.95 11.49
  L 25.66 11.51
  Q 25.98 11.51 26.04 11.82
  Q 26.86 15.76 30.32 16.40
  Q 31.00 16.53 31.00 17.22
  L 31.00 19.50
  Q 31.00 20.07 30.43 20.04
  Q 28.43 19.94 26.80 18.86
  Q 25.99 18.33 26.00 19.30
  Z"
/>
</svg>
