<?xml version="1.0" encoding="UTF-8" standalone="no"?>
<!DOCTYPE svg PUBLIC "-//W3C//DTD SVG 1.1//EN" "http://www.w3.org/Graphics/SVG/1.1/DTD/svg11.dtd">
<svg xmlns="http://www.w3.org/2000/svg" version="1.1" viewBox="0.00 0.00 44.00 44.00">
<path stroke="#808080" stroke-width="2.00" fill="none" stroke-linecap="butt" vector-effect="non-scaling-stroke" d="
  M 18.60 18.25
  L 17.47 18.30
  Q 17.01 18.33 17.01 18.78
  L 17.00 21.47
  Q 17.00 21.94 17.47 21.96
  L 18.65 22.02
  Q 19.25 22.05 19.25 22.65
  L 19.25 32.25
  Q 19.25 32.75 19.75 32.75
  L 23.13 32.75
  Q 23.50 32.75 23.50 32.37
  L 23.50 22.50
  Q 23.50 22.01 24.00 22.00
  L 25.99 22.00
  Q 26.72 21.99 26.74 21.26
  L 26.82 18.77
  Q 26.83 18.21 26.27 18.22
  L 23.95 18.26
  Q 23.35 18.27 23.44 17.69
  L 23.77 15.36
  Q 23.82 15.00 24.18 15.00
  L 26.25 15.00
  Q 27.00 14.99 27.00 14.25
  L 27.00 11.93
  Q 27.00 11.32 26.39 11.27
  Q 22.71 10.95 20.69 12.21
  C 19.07 13.21 19.22 15.85 19.25 17.56
  Q 19.26 18.22 18.60 18.25"
/>
<path fill="#000000" d="
  M 20.88 0.00
  L 23.21 0.00
  Q 41.44 2.67 44.00 20.49
  L 44.00 23.32
  Q 41.55 41.31 23.13 44.00
  L 20.71 44.00
  Q 2.28 41.15 0.00 23.25
  L 0.00 19.97
  Q 2.98 2.46 20.88 0.00
  Z
  M 18.60 18.25
  L 17.47 18.30
  Q 17.01 18.33 17.01 18.78
  L 17.00 21.47
  Q 17.00 21.94 17.47 21.96
  L 18.65 22.02
  Q 19.25 22.05 19.25 22.65
  L 19.25 32.25
  Q 19.25 32.75 19.75 32.75
  L 23.13 32.75
  Q 23.50 32.75 23.50 32.37
  L 23.50 22.50
  Q 23.50 22.01 24.00 22.00
  L 25.99 22.00
  Q 26.72 21.99 26.74 21.26
  L 26.82 18.77
  Q 26.83 18.21 26.27 18.22
  L 23.95 18.26
  Q 23.35 18.27 23.44 17.69
  L 23.77 15.36
  Q 23.82 15.00 24.18 15.00
  L 26.25 15.00
  Q 27.00 14.99 27.00 14.25
  L 27.00 11.93
  Q 27.00 11.32 26.39 11.27
  Q 22.71 10.95 20.69 12.21
  C 19.07 13.21 19.22 15.85 19.25 17.56
  Q 19.26 18.22 18.60 18.25
  Z"
/>
<path fill="#ffffff" d="
  M 19.25 17.56
  C 19.22 15.85 19.07 13.21 20.69 12.21
  Q 22.71 10.95 26.39 11.27
  Q 27.00 11.32 27.00 11.93
  L 27.00 14.25
  Q 27.00 14.99 26.25 15.00
  L 24.18 15.00
  Q 23.82 15.00 23.77 15.36
  L 23.44 17.69
  Q 23.35 18.27 23.95 18.26
  L 26.27 18.22
  Q 26.83 18.21 26.82 18.77
  L 26.74 21.26
  Q 26.72 21.99 25.99 22.00
  L 24.00 22.00
  Q 23.50 22.01 23.50 22.50
  L 23.50 32.37
  Q 23.50 32.75 23.13 32.75
  L 19.75 32.75
  Q 19.25 32.75 19.25 32.25
  L 19.25 22.65
  Q 19.25 22.05 18.65 22.02
  L 17.47 21.96
  Q 17.00 21.94 17.00 21.47
  L 17.01 18.78
  Q 17.01 18.33 17.47 18.30
  L 18.60 18.25
  Q 19.26 18.22 19.25 17.56
  Z"
/>
</svg>
