<?xml version="1.0" encoding="UTF-8" standalone="no"?>
<!DOCTYPE svg PUBLIC "-//W3C//DTD SVG 1.1//EN" "http://www.w3.org/Graphics/SVG/1.1/DTD/svg11.dtd">
<svg xmlns="http://www.w3.org/2000/svg" version="1.1" viewBox="0.00 0.00 44.00 44.00">
<path stroke="#787878" stroke-width="2.00" fill="none" stroke-linecap="butt" vector-effect="non-scaling-stroke" d="
  M 21.04 25.73
  C 29.11 30.85 34.90 14.38 24.69 11.85
  C 19.89 10.66 13.88 13.36 13.83 18.89
  Q 13.82 20.03 14.33 21.06
  Q 15.76 23.96 16.77 23.37
  Q 17.36 23.02 17.09 22.40
  Q 14.63 16.66 19.71 14.08
  Q 22.51 12.66 25.09 14.22
  C 29.44 16.87 26.46 26.96 21.94 24.05
  Q 21.45 23.74 21.48 23.16
  C 21.59 21.15 23.36 18.00 21.83 16.44
  Q 21.55 16.16 21.17 16.18
  Q 18.58 16.36 18.58 19.30
  C 18.58 20.97 18.94 22.24 18.38 23.96
  Q 17.24 27.45 17.19 30.90
  Q 17.16 33.44 18.49 31.27
  Q 19.91 28.98 20.41 26.02
  Q 20.51 25.40 21.04 25.73"
/>
<path fill="#000000" d="
  M 20.88 0.00
  L 23.20 0.00
  Q 41.43 2.67 44.00 20.50
  L 44.00 23.32
  Q 41.56 41.29 23.16 44.00
  L 20.70 44.00
  Q 7.18 42.33 1.54 30.25
  Q 0.72 28.50 0.00 23.17
  L 0.00 19.97
  Q 2.98 2.46 20.88 0.00
  Z
  M 21.04 25.73
  C 29.11 30.85 34.90 14.38 24.69 11.85
  C 19.89 10.66 13.88 13.36 13.83 18.89
  Q 13.82 20.03 14.33 21.06
  Q 15.76 23.96 16.77 23.37
  Q 17.36 23.02 17.09 22.40
  Q 14.63 16.66 19.71 14.08
  Q 22.51 12.66 25.09 14.22
  C 29.44 16.87 26.46 26.96 21.94 24.05
  Q 21.45 23.74 21.48 23.16
  C 21.59 21.15 23.36 18.00 21.83 16.44
  Q 21.55 16.16 21.17 16.18
  Q 18.58 16.36 18.58 19.30
  C 18.58 20.97 18.94 22.24 18.38 23.96
  Q 17.24 27.45 17.19 30.90
  Q 17.16 33.44 18.49 31.27
  Q 19.91 28.98 20.41 26.02
  Q 20.51 25.40 21.04 25.73
  Z"
/>
<path fill="#eff0f0" d="
  M 20.41 26.02
  Q 19.91 28.98 18.49 31.27
  Q 17.16 33.44 17.19 30.90
  Q 17.24 27.45 18.38 23.96
  C 18.94 22.24 18.58 20.97 18.58 19.30
  Q 18.58 16.36 21.17 16.18
  Q 21.55 16.16 21.83 16.44
  C 23.36 18.00 21.59 21.15 21.48 23.16
  Q 21.45 23.74 21.94 24.05
  C 26.46 26.96 29.44 16.87 25.09 14.22
  Q 22.51 12.66 19.71 14.08
  Q 14.63 16.66 17.09 22.40
  Q 17.36 23.02 16.77 23.37
  Q 15.76 23.96 14.33 21.06
  Q 13.82 20.03 13.83 18.89
  C 13.88 13.36 19.89 10.66 24.69 11.85
  C 34.90 14.38 29.11 30.85 21.04 25.73
  Q 20.51 25.40 20.41 26.02
  Z"
/>
</svg>
