<?xml version="1.0" encoding="UTF-8" standalone="no"?>
<!DOCTYPE svg PUBLIC "-//W3C//DTD SVG 1.1//EN" "http://www.w3.org/Graphics/SVG/1.1/DTD/svg11.dtd">
<svg xmlns="http://www.w3.org/2000/svg" version="1.1" viewBox="0.00 0.00 44.00 44.00">
<g stroke-width="2.00" fill="none" stroke-linecap="butt">
<path stroke="#808080" vector-effect="non-scaling-stroke" d="
  M 32.2253 19.2821
  A 4.54 4.54 0.0 0 0 27.6774 14.7501
  L 16.2774 14.7700
  A 4.54 4.54 0.0 0 0 11.7453 19.3179
  L 11.7547 24.7179
  A 4.54 4.54 0.0 0 0 16.3026 29.2499
  L 27.7026 29.2300
  A 4.54 4.54 0.0 0 0 32.2347 24.6821
  L 32.2253 19.2821"
/>
<path stroke="#808080" vector-effect="non-scaling-stroke" d="
  M 19.76 19.13
  A 0.33 0.33 0.0 0 0 19.27 19.42
  L 19.22 24.60
  A 0.33 0.33 0.0 0 0 19.70 24.90
  L 24.74 22.36
  A 0.33 0.33 0.0 0 0 24.75 21.77
  L 19.76 19.13"
/>
</g>
<path fill="#000000" d="
  M 20.88 0.00
  L 23.20 0.00
  Q 41.43 2.67 44.00 20.50
  L 44.00 23.32
  Q 41.56 41.29 23.16 44.00
  L 20.73 44.00
  Q 2.29 41.16 0.00 23.25
  L 0.00 19.97
  Q 2.98 2.46 20.88 0.00
  Z
  M 32.2253 19.2821
  A 4.54 4.54 0.0 0 0 27.6774 14.7501
  L 16.2774 14.7700
  A 4.54 4.54 0.0 0 0 11.7453 19.3179
  L 11.7547 24.7179
  A 4.54 4.54 0.0 0 0 16.3026 29.2499
  L 27.7026 29.2300
  A 4.54 4.54 0.0 0 0 32.2347 24.6821
  L 32.2253 19.2821
  Z"
/>
<path fill="#ffffff" d="
  M 32.2347 24.6821
  A 4.54 4.54 0.0 0 1 27.7026 29.2300
  L 16.3026 29.2499
  A 4.54 4.54 0.0 0 1 11.7547 24.7179
  L 11.7453 19.3179
  A 4.54 4.54 0.0 0 1 16.2774 14.7700
  L 27.6774 14.7501
  A 4.54 4.54 0.0 0 1 32.2253 19.2821
  L 32.2347 24.6821
  Z
  M 19.76 19.13
  A 0.33 0.33 0.0 0 0 19.27 19.42
  L 19.22 24.60
  A 0.33 0.33 0.0 0 0 19.70 24.90
  L 24.74 22.36
  A 0.33 0.33 0.0 0 0 24.75 21.77
  L 19.76 19.13
  Z"
/>
<path fill="#000000" d="
  M 19.76 19.13
  L 24.75 21.77
  A 0.33 0.33 0.0 0 1 24.74 22.36
  L 19.70 24.90
  A 0.33 0.33 0.0 0 1 19.22 24.60
  L 19.27 19.42
  A 0.33 0.33 0.0 0 1 19.76 19.13
  Z"
/>
</svg>
