<?xml version="1.0" encoding="UTF-8" standalone="no"?>
<!DOCTYPE svg PUBLIC "-//W3C//DTD SVG 1.1//EN" "http://www.w3.org/Graphics/SVG/1.1/DTD/svg11.dtd">
<svg xmlns="http://www.w3.org/2000/svg" version="1.1" viewBox="0.00 0.00 44.00 44.00">
<g stroke-width="2.00" fill="none" stroke-linecap="butt">
<path stroke="#808080" vector-effect="non-scaling-stroke" d="
  M 23.37 19.27
  A 0.28 0.28 0.0 0 1 22.94 19.25
  L 17.62 12.17
  A 0.28 0.28 0.0 0 0 17.40 12.06
  L 11.98 11.99
  A 0.28 0.28 0.0 0 0 11.75 12.44
  L 19.63 22.90
  A 0.28 0.28 0.0 0 1 19.61 23.26
  L 11.91 31.50
  A 0.28 0.28 0.0 0 0 12.12 31.97
  L 13.15 31.94
  A 0.28 0.28 0.0 0 0 13.35 31.85
  L 20.27 24.35
  A 0.28 0.28 0.0 0 1 20.70 24.37
  L 26.25 31.85
  A 0.28 0.28 0.0 0 0 26.47 31.96
  L 31.98 32.02
  A 0.28 0.28 0.0 0 0 32.21 31.58
  L 24.02 20.71
  A 0.28 0.28 0.0 0 1 24.04 20.35
  L 31.41 12.46
  A 0.28 0.28 0.0 0 0 31.19 11.99
  L 30.18 12.03
  A 0.28 0.28 0.0 0 0 29.98 12.12
  L 23.37 19.27"
/>
<path stroke="#808080" vector-effect="non-scaling-stroke" d="
  M 26.91 30.32
  A 0.32 0.32 0.0 0 0 27.15 30.45
  L 29.24 30.52
  A 0.32 0.32 0.0 0 0 29.51 30.01
  L 17.04 13.40
  A 0.32 0.32 0.0 0 0 16.79 13.27
  L 14.67 13.25
  A 0.32 0.32 0.0 0 0 14.41 13.76
  L 26.91 30.32"
/>
</g>
<path fill="#000000" d="
  M 20.88 0.00
  L 23.20 0.00
  Q 41.43 2.67 44.00 20.50
  L 44.00 23.32
  Q 41.56 41.30 23.16 44.00
  L 20.72 44.00
  Q 2.29 41.16 0.00 23.25
  L 0.00 19.97
  Q 2.98 2.46 20.88 0.00
  Z
  M 23.37 19.27
  A 0.28 0.28 0.0 0 1 22.94 19.25
  L 17.62 12.17
  A 0.28 0.28 0.0 0 0 17.40 12.06
  L 11.98 11.99
  A 0.28 0.28 0.0 0 0 11.75 12.44
  L 19.63 22.90
  A 0.28 0.28 0.0 0 1 19.61 23.26
  L 11.91 31.50
  A 0.28 0.28 0.0 0 0 12.12 31.97
  L 13.15 31.94
  A 0.28 0.28 0.0 0 0 13.35 31.85
  L 20.27 24.35
  A 0.28 0.28 0.0 0 1 20.70 24.37
  L 26.25 31.85
  A 0.28 0.28 0.0 0 0 26.47 31.96
  L 31.98 32.02
  A 0.28 0.28 0.0 0 0 32.21 31.58
  L 24.02 20.71
  A 0.28 0.28 0.0 0 1 24.04 20.35
  L 31.41 12.46
  A 0.28 0.28 0.0 0 0 31.19 11.99
  L 30.18 12.03
  A 0.28 0.28 0.0 0 0 29.98 12.12
  L 23.37 19.27
  Z"
/>
<path fill="#ffffff" d="
  M 23.37 19.27
  L 29.98 12.12
  A 0.28 0.28 0.0 0 1 30.18 12.03
  L 31.19 11.99
  A 0.28 0.28 0.0 0 1 31.41 12.46
  L 24.04 20.35
  A 0.28 0.28 0.0 0 0 24.02 20.71
  L 32.21 31.58
  A 0.28 0.28 0.0 0 1 31.98 32.02
  L 26.47 31.96
  A 0.28 0.28 0.0 0 1 26.25 31.85
  L 20.70 24.37
  A 0.28 0.28 0.0 0 0 20.27 24.35
  L 13.35 31.85
  A 0.28 0.28 0.0 0 1 13.15 31.94
  L 12.12 31.97
  A 0.28 0.28 0.0 0 1 11.91 31.50
  L 19.61 23.26
  A 0.28 0.28 0.0 0 0 19.63 22.90
  L 11.75 12.44
  A 0.28 0.28 0.0 0 1 11.98 11.99
  L 17.40 12.06
  A 0.28 0.28 0.0 0 1 17.62 12.17
  L 22.94 19.25
  A 0.28 0.28 0.0 0 0 23.37 19.27
  Z
  M 26.91 30.32
  A 0.32 0.32 0.0 0 0 27.15 30.45
  L 29.24 30.52
  A 0.32 0.32 0.0 0 0 29.51 30.01
  L 17.04 13.40
  A 0.32 0.32 0.0 0 0 16.79 13.27
  L 14.67 13.25
  A 0.32 0.32 0.0 0 0 14.41 13.76
  L 26.91 30.32
  Z"
/>
<path fill="#000000" d="
  M 26.91 30.32
  L 14.41 13.76
  A 0.32 0.32 0.0 0 1 14.67 13.25
  L 16.79 13.27
  A 0.32 0.32 0.0 0 1 17.04 13.40
  L 29.51 30.01
  A 0.32 0.32 0.0 0 1 29.24 30.52
  L 27.15 30.45
  A 0.32 0.32 0.0 0 1 26.91 30.32
  Z"
/>
</svg>
