<?xml version="1.0" encoding="UTF-8" standalone="no"?>
<!DOCTYPE svg PUBLIC "-//W3C//DTD SVG 1.1//EN" "http://www.w3.org/Graphics/SVG/1.1/DTD/svg11.dtd">
<svg xmlns="http://www.w3.org/2000/svg" version="1.1" viewBox="0.00 0.00 77.00 79.00">
<g stroke-width="2.00" fill="none" stroke-linecap="butt">
<path stroke="#dddddc" vector-effect="non-scaling-stroke" d="
  M 38.42 17.27
  C 35.62 13.15 29.38 11.83 24.75 12.16
  Q 20.05 12.50 16.43 15.34
  Q 9.25 20.98 9.97 29.89
  Q 10.77 39.84 16.44 47.10
  Q 22.91 55.38 28.46 60.10
  Q 32.88 63.87 38.18 68.38
  A 1.51 1.50 44.7 0 0 40.14 68.38
  C 45.25 63.94 50.78 59.73 55.42 54.55
  Q 58.42 51.20 61.07 48.10
  Q 67.18 40.93 68.28 30.79
  Q 69.24 21.94 63.02 16.26
  Q 59.50 13.05 55.17 12.37
  C 48.74 11.35 44.05 13.11 39.48 17.39
  Q 38.88 17.95 38.42 17.27"
/>
<path stroke="#dddddc" vector-effect="non-scaling-stroke" d="
  M 38.56 22.48
  C 37.52 21.25 36.84 19.84 35.64 18.74
  C 28.99 12.62 18.82 14.53 14.61 22.39
  C 10.83 29.43 14.63 39.82 19.32 45.72
  Q 27.24 55.64 38.66 64.58
  Q 39.10 64.92 39.55 64.60
  Q 45.77 60.18 49.82 55.95
  Q 52.79 52.86 55.90 49.53
  C 60.63 44.47 63.47 39.82 64.92 32.99
  C 66.71 24.53 62.62 16.89 53.77 15.45
  C 46.53 14.28 43.55 17.52 39.59 22.46
  Q 39.08 23.10 38.56 22.48"
/>
</g>
<path fill="#ffffff" d="
  M 0.00 0.00
  L 77.00 0.00
  L 77.00 79.00
  L 0.00 79.00
  L 0.00 0.00
  Z
  M 38.42 17.27
  C 35.62 13.15 29.38 11.83 24.75 12.16
  Q 20.05 12.50 16.43 15.34
  Q 9.25 20.98 9.97 29.89
  Q 10.77 39.84 16.44 47.10
  Q 22.91 55.38 28.46 60.10
  Q 32.88 63.87 38.18 68.38
  A 1.51 1.50 44.7 0 0 40.14 68.38
  C 45.25 63.94 50.78 59.73 55.42 54.55
  Q 58.42 51.20 61.07 48.10
  Q 67.18 40.93 68.28 30.79
  Q 69.24 21.94 63.02 16.26
  Q 59.50 13.05 55.17 12.37
  C 48.74 11.35 44.05 13.11 39.48 17.39
  Q 38.88 17.95 38.42 17.27
  Z"
/>
<path fill="#babab8" d="
  M 39.48 17.39
  C 44.05 13.11 48.74 11.35 55.17 12.37
  Q 59.50 13.05 63.02 16.26
  Q 69.24 21.94 68.28 30.79
  Q 67.18 40.93 61.07 48.10
  Q 58.42 51.20 55.42 54.55
  C 50.78 59.73 45.25 63.94 40.14 68.38
  A 1.51 1.50 44.7 0 1 38.18 68.38
  Q 32.88 63.87 28.46 60.10
  Q 22.91 55.38 16.44 47.10
  Q 10.77 39.84 9.97 29.89
  Q 9.25 20.98 16.43 15.34
  Q 20.05 12.50 24.75 12.16
  C 29.38 11.83 35.62 13.15 38.42 17.27
  Q 38.88 17.95 39.48 17.39
  Z
  M 38.56 22.48
  C 37.52 21.25 36.84 19.84 35.64 18.74
  C 28.99 12.62 18.82 14.53 14.61 22.39
  C 10.83 29.43 14.63 39.82 19.32 45.72
  Q 27.24 55.64 38.66 64.58
  Q 39.10 64.92 39.55 64.60
  Q 45.77 60.18 49.82 55.95
  Q 52.79 52.86 55.90 49.53
  C 60.63 44.47 63.47 39.82 64.92 32.99
  C 66.71 24.53 62.62 16.89 53.77 15.45
  C 46.53 14.28 43.55 17.52 39.59 22.46
  Q 39.08 23.10 38.56 22.48
  Z"
/>
<path fill="#ffffff" d="
  M 39.59 22.46
  C 43.55 17.52 46.53 14.28 53.77 15.45
  C 62.62 16.89 66.71 24.53 64.92 32.99
  C 63.47 39.82 60.63 44.47 55.90 49.53
  Q 52.79 52.86 49.82 55.95
  Q 45.77 60.18 39.55 64.60
  Q 39.10 64.92 38.66 64.58
  Q 27.24 55.64 19.32 45.72
  C 14.63 39.82 10.83 29.43 14.61 22.39
  C 18.82 14.53 28.99 12.62 35.64 18.74
  C 36.84 19.84 37.52 21.25 38.56 22.48
  Q 39.08 23.10 39.59 22.46
  Z"
/>
</svg>
