<?xml version="1.0" encoding="UTF-8" standalone="no"?>
<!DOCTYPE svg PUBLIC "-//W3C//DTD SVG 1.1//EN" "http://www.w3.org/Graphics/SVG/1.1/DTD/svg11.dtd">
<svg xmlns="http://www.w3.org/2000/svg" version="1.1" viewBox="0.00 0.00 44.00 44.00">
<g stroke-width="2.00" fill="none" stroke-linecap="butt">
<path stroke="#807f80" vector-effect="non-scaling-stroke" d="
  M 13.05 27.68
  C 12.72 29.10 12.06 30.53 11.66 31.94
  Q 11.45 32.66 12.16 32.42
  L 16.54 30.94
  Q 17.00 30.78 17.45 30.97
  Q 24.51 33.84 29.58 28.96
  C 32.03 26.61 33.06 23.03 32.34 19.68
  C 30.49 11.06 19.20 8.29 13.84 15.62
  Q 10.24 20.54 12.91 26.41
  Q 13.20 27.05 13.05 27.68"
/>
<path stroke="#807f80" vector-effect="non-scaling-stroke" d="
  M 17.93 29.28
  C 22.79 31.85 28.57 29.72 30.44 24.50
  C 33.49 16.03 22.78 9.40 16.35 15.36
  Q 11.47 19.90 14.76 26.43
  C 15.17 27.25 14.78 28.18 14.38 28.93
  Q 13.81 29.99 14.98 29.69
  L 17.01 29.17
  Q 17.49 29.05 17.93 29.28"
/>
<path stroke="#807f80" vector-effect="non-scaling-stroke" d="
  M 23.16 24.13
  Q 21.14 23.17 19.99 21.48
  Q 19.71 21.07 20.00 20.66
  Q 21.07 19.11 19.66 17.44
  A 1.21 1.21 0.0 0 0 17.65 17.68
  Q 16.54 19.96 18.12 22.07
  C 19.87 24.42 25.13 28.96 27.49 24.94
  Q 27.78 24.43 27.29 24.13
  L 25.67 23.15
  A 0.93 0.93 0.0 0 0 24.45 23.36
  L 24.00 23.93
  Q 23.66 24.36 23.16 24.13"
/>
</g>
<path fill="#000000" d="
  M 20.88 0.00
  L 23.20 0.00
  Q 41.43 2.67 44.00 20.50
  L 44.00 23.32
  Q 41.56 41.29 23.16 44.00
  L 20.72 44.00
  Q 2.29 41.16 0.00 23.25
  L 0.00 19.97
  Q 2.98 2.46 20.88 0.00
  Z
  M 13.05 27.68
  C 12.72 29.10 12.06 30.53 11.66 31.94
  Q 11.45 32.66 12.16 32.42
  L 16.54 30.94
  Q 17.00 30.78 17.45 30.97
  Q 24.51 33.84 29.58 28.96
  C 32.03 26.61 33.06 23.03 32.34 19.68
  C 30.49 11.06 19.20 8.29 13.84 15.62
  Q 10.24 20.54 12.91 26.41
  Q 13.20 27.05 13.05 27.68
  Z"
/>
<path fill="#fffeff" d="
  M 11.66 31.94
  C 12.06 30.53 12.72 29.10 13.05 27.68
  Q 13.20 27.05 12.91 26.41
  Q 10.24 20.54 13.84 15.62
  C 19.20 8.29 30.49 11.06 32.34 19.68
  C 33.06 23.03 32.03 26.61 29.58 28.96
  Q 24.51 33.84 17.45 30.97
  Q 17.00 30.78 16.54 30.94
  L 12.16 32.42
  Q 11.45 32.66 11.66 31.94
  Z
  M 17.93 29.28
  C 22.79 31.85 28.57 29.72 30.44 24.50
  C 33.49 16.03 22.78 9.40 16.35 15.36
  Q 11.47 19.90 14.76 26.43
  C 15.17 27.25 14.78 28.18 14.38 28.93
  Q 13.81 29.99 14.98 29.69
  L 17.01 29.17
  Q 17.49 29.05 17.93 29.28
  Z"
/>
<path fill="#000000" d="
  M 17.01 29.17
  L 14.98 29.69
  Q 13.81 29.99 14.38 28.93
  C 14.78 28.18 15.17 27.25 14.76 26.43
  Q 11.47 19.90 16.35 15.36
  C 22.78 9.40 33.49 16.03 30.44 24.50
  C 28.57 29.72 22.79 31.85 17.93 29.28
  Q 17.49 29.05 17.01 29.17
  Z
  M 23.16 24.13
  Q 21.14 23.17 19.99 21.48
  Q 19.71 21.07 20.00 20.66
  Q 21.07 19.11 19.66 17.44
  A 1.21 1.21 0.0 0 0 17.65 17.68
  Q 16.54 19.96 18.12 22.07
  C 19.87 24.42 25.13 28.96 27.49 24.94
  Q 27.78 24.43 27.29 24.13
  L 25.67 23.15
  A 0.93 0.93 0.0 0 0 24.45 23.36
  L 24.00 23.93
  Q 23.66 24.36 23.16 24.13
  Z"
/>
<path fill="#fffeff" d="
  M 24.00 23.93
  L 24.45 23.36
  A 0.93 0.93 0.0 0 1 25.67 23.15
  L 27.29 24.13
  Q 27.78 24.43 27.49 24.94
  C 25.13 28.96 19.87 24.42 18.12 22.07
  Q 16.54 19.96 17.65 17.68
  A 1.21 1.21 0.0 0 1 19.66 17.44
  Q 21.07 19.11 20.00 20.66
  Q 19.71 21.07 19.99 21.48
  Q 21.14 23.17 23.16 24.13
  Q 23.66 24.36 24.00 23.93
  Z"
/>
</svg>
