<?xml version="1.0" encoding="UTF-8" standalone="no"?>
<!DOCTYPE svg PUBLIC "-//W3C//DTD SVG 1.1//EN" "http://www.w3.org/Graphics/SVG/1.1/DTD/svg11.dtd">
<svg xmlns="http://www.w3.org/2000/svg" version="1.1" viewBox="0.00 0.00 44.00 44.00">
<g stroke-width="2.00" fill="none" stroke-linecap="butt">
<path stroke="#808080" vector-effect="non-scaling-stroke" d="
  M 32.2419 17.8336
  A 6.02 6.02 0.0 0 0 26.2535 11.7822
  L 17.8336 11.7381
  A 6.02 6.02 0.0 0 0 11.7822 17.7265
  L 11.7381 26.1464
  A 6.02 6.02 0.0 0 0 17.7265 32.1978
  L 26.1464 32.2419
  A 6.02 6.02 0.0 0 0 32.1978 26.2535
  L 32.2419 17.8336"
/>
<path stroke="#808080" vector-effect="non-scaling-stroke" d="
  M 30.3978 17.7360
  A 4.20 4.20 0.0 0 0 26.1759 13.5580
  L 17.7360 13.6022
  A 4.20 4.20 0.0 0 0 13.5580 17.8241
  L 13.6022 26.2640
  A 4.20 4.20 0.0 0 0 17.8241 30.4420
  L 26.2640 30.3978
  A 4.20 4.20 0.0 0 0 30.4420 26.1759
  L 30.3978 17.7360"
/>
<path stroke="#808080" vector-effect="non-scaling-stroke" d="
  M 28.71 16.45
  A 1.19 1.19 0.0 0 0 27.52 15.26
  A 1.19 1.19 0.0 0 0 26.33 16.45
  A 1.19 1.19 0.0 0 0 27.52 17.64
  A 1.19 1.19 0.0 0 0 28.71 16.45"
/>
<path stroke="#808080" vector-effect="non-scaling-stroke" d="
  M 27.27 22.00
  A 5.27 5.27 0.0 0 0 22.00 16.73
  A 5.27 5.27 0.0 0 0 16.73 22.00
  A 5.27 5.27 0.0 0 0 22.00 27.27
  A 5.27 5.27 0.0 0 0 27.27 22.00"
/>
<path stroke="#808080" vector-effect="non-scaling-stroke" d="
  M 25.35 22.00
  A 3.35 3.35 0.0 0 0 22.00 18.65
  A 3.35 3.35 0.0 0 0 18.65 22.00
  A 3.35 3.35 0.0 0 0 22.00 25.35
  A 3.35 3.35 0.0 0 0 25.35 22.00"
/>
</g>
<path fill="#000000" d="
  M 20.88 0.00
  L 23.20 0.00
  Q 41.43 2.66 44.00 20.50
  L 44.00 23.32
  Q 41.56 41.29 23.16 44.00
  L 20.72 44.00
  Q 2.29 41.16 0.00 23.25
  L 0.00 19.96
  Q 2.97 2.46 20.88 0.00
  Z
  M 32.2419 17.8336
  A 6.02 6.02 0.0 0 0 26.2535 11.7822
  L 17.8336 11.7381
  A 6.02 6.02 0.0 0 0 11.7822 17.7265
  L 11.7381 26.1464
  A 6.02 6.02 0.0 0 0 17.7265 32.1978
  L 26.1464 32.2419
  A 6.02 6.02 0.0 0 0 32.1978 26.2535
  L 32.2419 17.8336
  Z"
/>
<path fill="#ffffff" d="
  M 32.1978 26.2535
  A 6.02 6.02 0.0 0 1 26.1464 32.2419
  L 17.7265 32.1978
  A 6.02 6.02 0.0 0 1 11.7381 26.1464
  L 11.7822 17.7265
  A 6.02 6.02 0.0 0 1 17.8336 11.7381
  L 26.2535 11.7822
  A 6.02 6.02 0.0 0 1 32.2419 17.8336
  L 32.1978 26.2535
  Z
  M 30.3978 17.7360
  A 4.20 4.20 0.0 0 0 26.1759 13.5580
  L 17.7360 13.6022
  A 4.20 4.20 0.0 0 0 13.5580 17.8241
  L 13.6022 26.2640
  A 4.20 4.20 0.0 0 0 17.8241 30.4420
  L 26.2640 30.3978
  A 4.20 4.20 0.0 0 0 30.4420 26.1759
  L 30.3978 17.7360
  Z"
/>
<path fill="#000000" d="
  M 30.4420 26.1759
  A 4.20 4.20 0.0 0 1 26.2640 30.3978
  L 17.8241 30.4420
  A 4.20 4.20 0.0 0 1 13.6022 26.2640
  L 13.5580 17.8241
  A 4.20 4.20 0.0 0 1 17.7360 13.6022
  L 26.1759 13.5580
  A 4.20 4.20 0.0 0 1 30.3978 17.7360
  L 30.4420 26.1759
  Z
  M 28.71 16.45
  A 1.19 1.19 0.0 0 0 27.52 15.26
  A 1.19 1.19 0.0 0 0 26.33 16.45
  A 1.19 1.19 0.0 0 0 27.52 17.64
  A 1.19 1.19 0.0 0 0 28.71 16.45
  Z
  M 27.27 22.00
  A 5.27 5.27 0.0 0 0 22.00 16.73
  A 5.27 5.27 0.0 0 0 16.73 22.00
  A 5.27 5.27 0.0 0 0 22.00 27.27
  A 5.27 5.27 0.0 0 0 27.27 22.00
  Z"
/>
<circle fill="#ffffff" cx="27.52" cy="16.45" r="1.19"/>
<path fill="#ffffff" d="
  M 27.27 22.00
  A 5.27 5.27 0.0 0 1 22.00 27.27
  A 5.27 5.27 0.0 0 1 16.73 22.00
  A 5.27 5.27 0.0 0 1 22.00 16.73
  A 5.27 5.27 0.0 0 1 27.27 22.00
  Z
  M 25.35 22.00
  A 3.35 3.35 0.0 0 0 22.00 18.65
  A 3.35 3.35 0.0 0 0 18.65 22.00
  A 3.35 3.35 0.0 0 0 22.00 25.35
  A 3.35 3.35 0.0 0 0 25.35 22.00
  Z"
/>
<circle fill="#000000" cx="22.00" cy="22.00" r="3.35"/>
</svg>
