<?xml version="1.0" encoding="UTF-8" standalone="no"?>
<!DOCTYPE svg PUBLIC "-//W3C//DTD SVG 1.1//EN" "http://www.w3.org/Graphics/SVG/1.1/DTD/svg11.dtd">
<svg xmlns="http://www.w3.org/2000/svg" version="1.1" viewBox="0.00 0.00 60.00 60.00">
<g stroke-width="2.00" fill="none" stroke-linecap="butt">
<path stroke="#808080" vector-effect="non-scaling-stroke" d="
  M 42.37 23.34
  A 12.69 12.69 0.0 0 0 29.68 10.65
  A 12.69 12.69 0.0 0 0 16.99 23.34
  A 12.69 12.69 0.0 0 0 29.68 36.03
  A 12.69 12.69 0.0 0 0 42.37 23.34"
/>
<path stroke="#808080" vector-effect="non-scaling-stroke" d="
  M 53.68 50.03
  C 52.00 43.21 46.37 39.04 39.39 39.01
  Q 30.23 38.97 21.13 39.04
  C 12.98 39.11 6.45 45.12 6.72 53.44
  Q 6.75 54.27 7.58 54.17
  L 8.09 54.11
  Q 8.90 54.01 9.00 53.19
  Q 10.41 41.61 22.29 41.49
  Q 30.22 41.42 39.61 41.55
  Q 46.02 41.65 49.75 47.12
  C 51.09 49.10 51.13 51.21 51.70 53.43
  Q 51.79 53.78 52.10 53.97
  Q 52.66 54.31 53.25 54.01
  Q 53.73 53.77 53.80 53.25
  Q 54.04 51.47 53.68 50.03"
/>
<path stroke="#808080" vector-effect="non-scaling-stroke" d="
  M 39.95 23.33
  A 10.26 10.26 0.0 0 0 29.69 13.07
  A 10.26 10.26 0.0 0 0 19.43 23.33
  A 10.26 10.26 0.0 0 0 29.69 33.59
  A 10.26 10.26 0.0 0 0 39.95 23.33"
/>
</g>
<path fill="#000000" d="
  M 0.00 0.00
  L 60.00 0.00
  L 60.00 60.00
  L 0.00 60.00
  L 0.00 0.00
  Z
  M 42.37 23.34
  A 12.69 12.69 0.0 0 0 29.68 10.65
  A 12.69 12.69 0.0 0 0 16.99 23.34
  A 12.69 12.69 0.0 0 0 29.68 36.03
  A 12.69 12.69 0.0 0 0 42.37 23.34
  Z
  M 53.68 50.03
  C 52.00 43.21 46.37 39.04 39.39 39.01
  Q 30.23 38.97 21.13 39.04
  C 12.98 39.11 6.45 45.12 6.72 53.44
  Q 6.75 54.27 7.58 54.17
  L 8.09 54.11
  Q 8.90 54.01 9.00 53.19
  Q 10.41 41.61 22.29 41.49
  Q 30.22 41.42 39.61 41.55
  Q 46.02 41.65 49.75 47.12
  C 51.09 49.10 51.13 51.21 51.70 53.43
  Q 51.79 53.78 52.10 53.97
  Q 52.66 54.31 53.25 54.01
  Q 53.73 53.77 53.80 53.25
  Q 54.04 51.47 53.68 50.03
  Z"
/>
<path fill="#ffffff" d="
  M 42.37 23.34
  A 12.69 12.69 0.0 0 1 29.68 36.03
  A 12.69 12.69 0.0 0 1 16.99 23.34
  A 12.69 12.69 0.0 0 1 29.68 10.65
  A 12.69 12.69 0.0 0 1 42.37 23.34
  Z
  M 39.95 23.33
  A 10.26 10.26 0.0 0 0 29.69 13.07
  A 10.26 10.26 0.0 0 0 19.43 23.33
  A 10.26 10.26 0.0 0 0 29.69 33.59
  A 10.26 10.26 0.0 0 0 39.95 23.33
  Z"
/>
<circle fill="#000000" cx="29.69" cy="23.33" r="10.26"/>
<path fill="#ffffff" d="
  M 39.39 39.01
  C 46.37 39.04 52.00 43.21 53.68 50.03
  Q 54.04 51.47 53.80 53.25
  Q 53.73 53.77 53.25 54.01
  Q 52.66 54.31 52.10 53.97
  Q 51.79 53.78 51.70 53.43
  C 51.13 51.21 51.09 49.10 49.75 47.12
  Q 46.02 41.65 39.61 41.55
  Q 30.22 41.42 22.29 41.49
  Q 10.41 41.61 9.00 53.19
  Q 8.90 54.01 8.09 54.11
  L 7.58 54.17
  Q 6.75 54.27 6.72 53.44
  C 6.45 45.12 12.98 39.11 21.13 39.04
  Q 30.23 38.97 39.39 39.01
  Z"
/>
</svg>
