<?xml version="1.0" encoding="UTF-8" standalone="no"?>
<!DOCTYPE svg PUBLIC "-//W3C//DTD SVG 1.1//EN" "http://www.w3.org/Graphics/SVG/1.1/DTD/svg11.dtd">
<svg xmlns="http://www.w3.org/2000/svg" version="1.1" viewBox="0.00 0.00 45.00 47.00">
<g stroke-width="2.00" fill="none" stroke-linecap="butt">
<path stroke="#808080" vector-effect="non-scaling-stroke" d="
  M 33.08 31.71
  Q 37.91 25.70 36.71 18.55
  Q 34.76 6.93 22.77 4.31
  Q 16.85 3.02 10.84 6.78
  C 0.20 13.44 0.51 29.07 11.30 35.52
  Q 18.22 39.66 26.34 36.81
  C 28.06 36.20 29.35 34.93 30.98 34.11
  Q 31.49 33.85 31.90 34.26
  L 36.73 39.13
  Q 37.24 39.65 37.85 39.23
  L 38.24 38.95
  A 0.65 0.65 0.0 0 0 38.32 37.96
  L 33.14 32.77
  Q 32.64 32.27 33.08 31.71"
/>
<path stroke="#808080" vector-effect="non-scaling-stroke" d="
  M 35.07 21.00
  A 15.08 15.08 0.0 0 0 19.99 5.92
  A 15.08 15.08 0.0 0 0 4.91 21.00
  A 15.08 15.08 0.0 0 0 19.99 36.08
  A 15.08 15.08 0.0 0 0 35.07 21.00"
/>
</g>
<path fill="#ffffff" d="
  M 0.00 0.00
  L 45.00 0.00
  L 45.00 47.00
  L 0.00 47.00
  L 0.00 0.00
  Z
  M 33.08 31.71
  Q 37.91 25.70 36.71 18.55
  Q 34.76 6.93 22.77 4.31
  Q 16.85 3.02 10.84 6.78
  C 0.20 13.44 0.51 29.07 11.30 35.52
  Q 18.22 39.66 26.34 36.81
  C 28.06 36.20 29.35 34.93 30.98 34.11
  Q 31.49 33.85 31.90 34.26
  L 36.73 39.13
  Q 37.24 39.65 37.85 39.23
  L 38.24 38.95
  A 0.65 0.65 0.0 0 0 38.32 37.96
  L 33.14 32.77
  Q 32.64 32.27 33.08 31.71
  Z"
/>
<path fill="#000000" d="
  M 33.14 32.77
  L 38.32 37.96
  A 0.65 0.65 0.0 0 1 38.24 38.95
  L 37.85 39.23
  Q 37.24 39.65 36.73 39.13
  L 31.90 34.26
  Q 31.49 33.85 30.98 34.11
  C 29.35 34.93 28.06 36.20 26.34 36.81
  Q 18.22 39.66 11.30 35.52
  C 0.51 29.07 0.20 13.44 10.84 6.78
  Q 16.85 3.02 22.77 4.31
  Q 34.76 6.93 36.71 18.55
  Q 37.91 25.70 33.08 31.71
  Q 32.64 32.27 33.14 32.77
  Z
  M 35.07 21.00
  A 15.08 15.08 0.0 0 0 19.99 5.92
  A 15.08 15.08 0.0 0 0 4.91 21.00
  A 15.08 15.08 0.0 0 0 19.99 36.08
  A 15.08 15.08 0.0 0 0 35.07 21.00
  Z"
/>
<circle fill="#ffffff" cx="19.99" cy="21.00" r="15.08"/>
</svg>
